<?xml version="1.0" encoding="utf-8"?>
<!-- Generator: Adobe Illustrator 23.1.0, SVG Export Plug-In . SVG Version: 6.00 Build 0)  -->
<svg version="1.1" id="Camada_1" xmlns="http://www.w3.org/2000/svg" xmlns:xlink="http://www.w3.org/1999/xlink" x="0px" y="0px"
	 viewBox="0 0 255.1 141.7" enable-background="new 0 0 255.1 141.7" xml:space="preserve">
<g>
	<path fill="#B8D7F1" d="M237.4,115.1H17.7c0-6.8-5.5-12.2-12.2-12.2V38.8c6.8,0,12.2-5.5,12.2-12.2h219.8c0,6.8,5.5,12.2,12.2,12.2
		v64.1C242.9,102.9,237.4,108.4,237.4,115.1z"/>
</g>
<g>
	<path fill="#426A9B" d="M232.6,111H22.5v-1.5c0-5.1-4.5-9.2-10-9.2H11V41.4h1.5c5.5,0,10-4.1,10-9.2v-1.5h210.1v1.5
		c0,5.1,4.5,9.2,10,9.2h1.5v58.9h-1.5c-5.5,0-10,4.1-10,9.2V111z M25.4,108h204.3c0.7-5.6,5.5-10,11.4-10.6V44.3
		c-6-0.6-10.7-5.1-11.4-10.6H25.4c-0.7,5.6-5.5,10-11.4,10.6v53.1C19.9,98.1,24.7,102.5,25.4,108z"/>
</g>
<g enable-background="new    ">
	<path fill="#DA942F" d="M39.8,91.2c-0.1-0.1-0.3-0.1-0.7,0.1c-0.4,0.1-0.6,0.1-0.6-0.1c-0.4,0-0.7,0-0.9,0c-0.6,0.1-1.1,0.1-1.5,0
		c-0.4-0.1-0.9-0.2-1.5-0.2c-0.4-0.1-0.7-0.2-0.8-0.2c-0.1,0-0.2-0.1-0.3-0.2c-0.5,0-0.8-0.1-0.8,0c0,0-0.1,0-0.2,0
		c-0.5-0.1-0.7-0.2-0.8-0.3c-0.1,0-0.1,0-0.2,0.1c-0.1-0.2-0.3-0.3-0.5-0.3c-0.3,0-0.5-0.1-0.6-0.3c-0.3-0.1-0.5-0.1-0.6-0.2
		c-0.1,0-0.1-0.1-0.2-0.2c-0.5-0.1-0.7-0.2-0.8-0.3C28.8,89,28.7,89,28.5,89c-0.2-0.3-0.4-0.5-0.5-0.6c-0.4-0.1-0.7-0.2-0.7-0.3
		c0,0-0.1-0.1-0.1-0.3c-0.5-0.3-0.7-0.5-0.8-0.6c-0.1,0-0.2-0.1-0.3-0.3c-0.5-0.5-0.8-0.8-0.9-1c-0.2-0.2-0.3-0.4-0.4-0.7
		c-0.3-0.3-0.5-0.4-0.7-0.5c-0.1-0.1-0.3-0.2-0.3-0.4c-0.1-0.1-0.2-0.2-0.3-0.3s-0.2-0.3-0.4-0.3c-0.1-0.3-0.2-0.6-0.3-0.7
		c-0.3-0.5-0.5-0.8-0.6-0.9c-0.1-0.4-0.2-0.6-0.3-0.7c-0.1-0.1-0.1-0.3-0.1-0.4c0-0.1,0-0.3-0.1-0.4c-0.3-0.4-0.5-0.6-0.5-0.6
		c0,0-0.1-0.1-0.1-0.1c-0.1-0.1-0.1-0.3-0.1-0.4c0-0.1,0-0.2-0.1-0.3c0-0.3,0-0.5-0.2-0.7s-0.2-0.4-0.3-0.8
		c-0.3-0.4-0.4-0.6-0.3-0.8c0-0.1,0-0.3,0-0.3c0-0.2-0.1-0.4-0.2-0.7c-0.1-0.2-0.2-0.5-0.3-0.8c0-0.2-0.1-0.5-0.1-0.8
		c0-0.4-0.1-0.7-0.2-0.9c-0.1-0.5-0.2-1-0.2-1.3c0-0.3-0.1-0.6-0.2-0.9c0-0.9,0.1-1.6,0.1-2.1c0-0.5,0.1-1,0.3-1.4
		c-0.2-0.4-0.3-0.7-0.2-1c0.1-0.3,0.1-0.6,0-0.9l0.4-0.8c0.1-0.4,0.2-0.6,0.2-0.6c0,0,0-0.1,0-0.1c0.1-0.3,0.1-0.4,0.1-0.5
		c0-0.1,0-0.2,0.1-0.3c0.1-0.3,0.2-0.5,0.2-0.6c0.1-0.1,0.1-0.2,0-0.4c0.2,0,0.3-0.1,0.3-0.3c0-0.2,0.1-0.3,0.2-0.4
		c0-0.4,0-0.7,0.1-0.7c0.1-0.1,0.1-0.2,0.1-0.4c0.3-0.3,0.4-0.6,0.4-0.9c0.1,0,0.2-0.1,0.3-0.3c0-0.1,0.1-0.2,0.2-0.3
		c0.2-0.5,0.3-0.7,0.4-0.8c0.1-0.1,0.1-0.1,0.2-0.2c0.1-0.3,0.2-0.5,0.3-0.6c0.1,0,0.1-0.1,0-0.2c0.3-0.3,0.4-0.6,0.6-1
		c0.1-0.4,0.4-0.7,0.7-0.9c0.2-0.3,0.4-0.6,0.4-0.9c0.3-0.2,0.5-0.3,0.6-0.5c0.3-0.5,0.5-0.7,0.6-0.8s0.1-0.1,0.2-0.3
		c0.3-0.3,0.5-0.4,0.5-0.5c0.3-0.1,0.4-0.2,0.4-0.2c0-0.1,0.1-0.1,0.1-0.2c0.3-0.1,0.5-0.3,0.7-0.4c0.2-0.2,0.4-0.3,0.7-0.4
		c0.1-0.2,0.2-0.4,0.3-0.4s0.2-0.2,0.2-0.4c0.3-0.1,0.4-0.2,0.5-0.3c0.1-0.1,0.1-0.1,0.1-0.2c0.3-0.1,0.5-0.3,0.8-0.6
		c0.5-0.2,0.7-0.4,0.8-0.5s0.2-0.2,0.4-0.3c0.2-0.3,0.4-0.5,0.6-0.6c0.3,0,0.5-0.1,0.6-0.2c0-0.1,0.1-0.1,0.3-0.1
		c0.4-0.3,0.7-0.5,0.8-0.6s0.3-0.1,0.5-0.2c0.4-0.1,0.6-0.2,0.6-0.3c0,0,0.1-0.1,0.2-0.1c0.4-0.2,0.7-0.3,0.8-0.3
		c0.1,0,0.2-0.1,0.3-0.1c0.4-0.1,0.7-0.1,0.8-0.1s0.3,0,0.5-0.1c0.5-0.1,0.7-0.2,0.8-0.3c0.1-0.1,0.2-0.1,0.3-0.2l0.9-0.1
		c0.5,0.1,0.9,0.1,1,0.1c0.1,0,0.2,0,0.3,0.1c0.5,0.1,0.9,0.2,1.3,0.2c0.4,0,0.7,0.1,0.9,0.3c0.4-0.2,0.6-0.3,0.7-0.2
		c0.1,0.1,0.1,0.1,0.2,0.1c0.4,0,0.6,0.1,0.8,0.1c0.5,0.2,0.7,0.3,0.7,0.3c0,0,0,0.1,0,0.1c0.4,0.2,0.6,0.3,0.7,0.3c0,0,0,0,0,0.1
		c0.3,0,0.5,0.1,0.7,0.2c0.2,0.1,0.4,0.2,0.6,0.3c0.3,0.3,0.6,0.5,0.7,0.7c0.1,0.2,0.3,0.3,0.5,0.3c0.1,0.3,0.3,0.5,0.4,0.8
		c0.2,0.2,0.4,0.4,0.6,0.7c0.1,0,0.2,0.1,0.3,0.3c0.1,0.1,0.2,0.2,0.3,0.3c-0.1,0.1-0.1,0.2,0,0.3c0.1,0.1,0.1,0.2,0.2,0.3
		c0.1,0.1,0.1,0.3,0.2,0.4c0,0.1,0.1,0.3,0.3,0.3c0.2,0.5,0.3,0.7,0.3,0.8c0,0,0,0.1,0,0.2c0.4,0.4,0.6,0.7,0.5,0.8
		c0,0.2,0,0.3,0.1,0.4c0.1,0.3,0.2,0.5,0.4,0.7c0,0.1,0,0.3,0,0.4c0,0.1,0,0.3,0.2,0.4c0,0.3,0,0.5,0,0.7c0,0.3,0,0.6,0,0.8
		c0,0.2,0,0.3-0.1,0.5c0,0.5,0.1,0.8,0.1,0.9c0,0.1,0,0.1,0,0.2c0,0.6-0.1,1-0.3,1.2c-0.2,0.5-0.2,0.8-0.2,0.8c0,0,0,0.1,0,0.1
		c-0.3,0.4-0.4,0.6-0.3,0.6c0,0,0,0.1,0,0.2c-0.1,0.2-0.2,0.4-0.3,0.6c-0.1,0.2-0.2,0.4-0.2,0.7c-0.3,0.3-0.4,0.5-0.4,0.6
		c0,0-0.1,0.1-0.2,0.1c-0.1,0.3-0.2,0.5-0.3,0.6c-0.1,0.1-0.2,0.2-0.3,0.3c-0.3,0.3-0.5,0.5-0.6,0.6s-0.1,0.2,0,0.3
		c-0.2,0-0.3,0-0.4,0.1s-0.1,0.2-0.2,0.2c-0.2,0.1-0.3,0.2-0.4,0.3c-0.1,0-0.2,0.1-0.3,0.2c-0.1,0.1-0.4,0.2-0.7,0.4
		c-0.2,0.1-0.3,0.2-0.5,0.3c-0.1,0.1-0.3,0.2-0.4,0.3c-0.3,0-0.5,0.1-0.7,0.2c-0.1,0.1-0.3,0.1-0.6,0.1c-0.5,0.1-0.9,0.2-1.2,0.3
		c-0.3,0.1-0.6,0.1-0.9,0.2c-0.6,0-1,0-1.1,0c-0.1,0-0.3,0-0.5,0c-0.5-0.2-0.7-0.3-0.8-0.3c-0.1,0-0.2-0.1-0.3-0.1
		c-0.4,0-0.7,0-0.8-0.1c-0.1-0.1-0.3-0.1-0.5-0.2c-0.1-0.1-0.2-0.2-0.3-0.3c-0.1-0.1-0.3-0.2-0.5-0.2c0-0.2-0.1-0.3-0.2-0.4
		s-0.2-0.1-0.3-0.2c0-0.3-0.1-0.5-0.3-0.8c-0.1-0.5-0.2-0.9-0.2-1.3c0-0.5,0-0.9,0.1-1.2c0.1-0.3,0.2-0.5,0.1-0.8
		c0.1-0.1,0.1-0.3,0.2-0.5s0.1-0.4,0.2-0.5c0.2-0.1,0.4-0.2,0.5-0.3c0.1-0.1,0.3-0.2,0.4-0.4c0.2,0,0.3-0.1,0.4-0.2
		c0.1-0.1,0.2-0.2,0.4-0.3c0.2-0.1,0.4-0.1,0.6-0.1c0.2,0,0.4,0,0.6-0.1c0.5,0,0.8,0,1,0c0.2,0,0.4,0,0.6,0.1
		c0.1,0.3,0.2,0.4,0.3,0.5s0.1,0.1,0.2,0.2c0,0.5,0,0.8,0,1c-0.2,0-0.4,0.1-0.5,0.2c-0.1,0.1-0.3,0.1-0.5,0
		c-0.3-0.2-0.6-0.3-0.7-0.3s-0.2,0-0.2-0.1c-0.2,0.1-0.4,0.2-0.5,0.2c-0.1,0-0.3,0-0.5,0.1c-0.2,0.1-0.4,0.2-0.5,0.4
		c-0.1,0.2-0.3,0.4-0.5,0.5c0,0.4,0,0.7-0.1,0.7c-0.1,0.3-0.1,0.6,0,0.8c0.1,0.2,0.1,0.5,0,0.7c0.1,0.1,0.2,0.2,0.3,0.2
		c0.1,0.1,0.2,0.2,0.2,0.4c0.1,0.1,0.2,0.1,0.3,0.2c0.1,0,0.2,0.1,0.3,0.3c0.3,0,0.5,0,0.6,0.1c0.1,0.1,0.2,0.1,0.4,0.1
		c0.3,0.1,0.4,0.2,0.5,0.3s0.1,0.1,0.2,0.1c0.2-0.1,0.4-0.1,0.6-0.1c0.2,0,0.4,0,0.6,0c0.6-0.2,1-0.3,1.4-0.3s0.6,0,0.9-0.1
		c0.3-0.2,0.5-0.3,0.6-0.4c0.2,0,0.3-0.1,0.4-0.2c0.3-0.2,0.5-0.3,0.6-0.3c0.1,0,0.2-0.1,0.3-0.2l0.8-0.4c0.3-0.3,0.5-0.5,0.6-0.6
		c0.1-0.2,0.2-0.3,0.4-0.4c0-0.2,0.1-0.3,0.3-0.4c0.1-0.1,0.2-0.3,0.3-0.4c0-0.2,0.1-0.4,0.2-0.6c0.1-0.2,0.1-0.4,0.2-0.6
		c0.2-0.6,0.4-1,0.6-1.1c0-0.3,0-0.5,0-0.5c0,0,0.1-0.1,0.1-0.2c0.1-0.3,0.1-0.5,0.1-0.6c0-0.1,0-0.3,0-0.4c0-0.2,0-0.4,0-0.5
		c0-0.1,0-0.3-0.1-0.5c0.1-0.4,0.1-0.7,0.2-0.8c0-0.1,0-0.2-0.2-0.2c-0.1-0.7-0.1-1,0-1.1c-0.2-0.4-0.3-0.6-0.3-0.7
		c0,0-0.1-0.1-0.1-0.2C49,53.8,49,53.6,49,53.6c0,0,0-0.1,0-0.2c-0.2-0.4-0.4-0.7-0.5-0.8c-0.2-0.4-0.4-0.7-0.6-0.9
		c0-0.3,0-0.5-0.1-0.7c-0.1-0.2-0.2-0.4-0.3-0.4c-0.4-0.4-0.6-0.7-0.7-0.8c-0.1-0.1-0.2-0.2-0.3-0.3c-0.1-0.1-0.2-0.2-0.3-0.3
		c-0.1-0.1-0.2-0.2-0.3-0.3c-0.4-0.2-0.7-0.3-0.8-0.5s-0.3-0.2-0.5-0.2c-0.4-0.3-0.7-0.5-0.9-0.6c-0.2,0-0.3-0.1-0.4-0.2
		c-0.5-0.1-0.8-0.2-0.9-0.2s-0.1,0-0.2-0.1c-0.5,0-0.7,0-0.7,0c0,0-0.1-0.1-0.2-0.1c-0.3,0-0.5,0-0.7-0.1s-0.4-0.1-0.7-0.1
		c-0.2-0.1-0.4-0.1-0.7-0.2s-0.5,0-0.6,0.1c-0.2-0.2-0.5-0.2-0.8-0.1c-0.3,0.1-0.7,0.2-1,0.3c-0.3,0.1-0.7,0.1-1,0.2
		c-0.4,0-0.6,0.2-0.8,0.4c-0.5,0-0.9,0.1-1.1,0.3c-0.2,0.1-0.4,0.3-0.7,0.4c-0.4,0.4-0.7,0.6-0.9,0.6c-0.2,0-0.3,0.1-0.4,0.3
		c-0.2,0-0.4,0.1-0.5,0.2c-0.1,0.1-0.3,0.2-0.5,0.2c-0.2,0.3-0.5,0.6-0.8,0.8s-0.6,0.5-0.8,0.8c-0.4,0.1-0.6,0.2-0.7,0.3
		c-0.1,0.1-0.1,0.2-0.2,0.3c-0.3,0.2-0.4,0.3-0.5,0.3c-0.1,0.1-0.2,0.1-0.3,0.2c-0.1,0.1-0.2,0.2-0.3,0.3c-0.1,0.1-0.2,0.2-0.3,0.2
		c-0.1,0.1-0.2,0.2-0.3,0.3c-0.1,0.1-0.3,0.2-0.3,0.4c-0.8,0.5-1.3,0.9-1.4,1.4c-0.3,0.3-0.4,0.5-0.4,0.6c0,0.1-0.1,0.2-0.2,0.3
		c-0.3,0.5-0.5,0.8-0.6,0.9s-0.2,0.4-0.2,0.6c-0.2,0.2-0.4,0.4-0.5,0.6c-0.1,0.2-0.2,0.4-0.4,0.6c-0.1,0.3-0.2,0.5-0.3,0.6
		c-0.1,0.1-0.2,0.1-0.3,0.2c0.1,0.4,0,0.8-0.1,1c-0.2,0.3-0.3,0.6-0.3,1c-0.3,0.5-0.5,0.8-0.5,0.9c0,0.1-0.1,0.2-0.2,0.3
		c0.1,0.2,0.1,0.4,0,0.5c-0.1,0.1-0.1,0.3,0,0.6c-0.2,0.1-0.3,0.2-0.3,0.4c0,0.2-0.1,0.4-0.3,0.4c0.1,0.4,0.1,0.6,0.1,0.6
		s-0.1,0.1-0.1,0.1c0,0.4-0.1,0.7,0,0.8c0,0.1,0,0.2-0.1,0.3c0,0.4-0.1,0.7-0.1,0.7c0,0,0,0.1-0.1,0.1c0,0.2,0,0.4,0.1,0.5
		c0,0.1,0,0.2-0.1,0.3c0.2,0.3,0.2,0.5,0.1,0.8c-0.1,0.3-0.1,0.5,0,0.8l-0.2,0.8c0,0.2,0.1,0.4,0.2,0.6c0.1,0.2,0.1,0.4,0,0.6
		c0.1,0.5,0.1,0.7,0.1,0.8c-0.1,0-0.1,0.1-0.1,0.2c0.2,0.5,0.3,0.8,0.3,0.8c0,0,0.1,0.1,0.1,0.2c0.1,0.5,0.2,0.7,0.2,0.8
		c0,0.2,0.1,0.3,0,0.5c0,0.2,0,0.4,0,0.6c0,0.1,0.1,0.3,0.2,0.4c0.1,0.1,0.1,0.3,0.2,0.4c0.1,0.2,0.1,0.4,0.2,0.6
		c0,0.2,0.1,0.4,0.3,0.5c0,0.3,0.1,0.5,0.1,0.5c0,0.1,0.1,0.1,0.2,0.2c0.2,0.6,0.3,1,0.5,1.2c0.2,0.2,0.2,0.5,0.2,0.7
		c0.3,0.4,0.5,0.7,0.7,0.8c0.2,0.5,0.4,0.8,0.6,0.9c0.2,0.1,0.3,0.3,0.3,0.6c0.1,0.2,0.3,0.3,0.5,0.5c0.2,0.1,0.3,0.3,0.3,0.5
		c0.1,0.1,0.3,0.3,0.5,0.4s0.3,0.3,0.2,0.5c0.3,0.2,0.4,0.3,0.5,0.3c0.1,0,0.1,0.1,0.1,0.2c0.2,0.1,0.3,0.2,0.5,0.4
		c0.2,0.2,0.3,0.3,0.5,0.5c0.3,0.4,0.6,0.6,0.8,0.8s0.5,0.3,0.7,0.6c0.5,0.2,0.8,0.3,0.9,0.5c0.2,0,0.4,0.1,0.5,0.3
		c0.1,0.1,0.3,0.2,0.5,0.3c0.4,0.1,0.7,0.1,0.8,0.1c0.1,0,0.2,0,0.3,0c0.4,0.2,0.6,0.3,0.6,0.3s0.1,0,0.1,0.1c0.3,0,0.6,0.1,0.8,0.2
		s0.4,0.2,0.8,0.1c0.4,0,0.6,0.1,0.7,0.2s0.2,0.1,0.3,0.1c0.4,0.1,0.6,0.1,0.7,0.1c0.1,0,0.2,0,0.3,0.1c0.2-0.1,0.4-0.1,0.7-0.1
		c0.2,0,0.4,0.1,0.7,0.2c0.4,0,0.7-0.1,0.8-0.1c0.1,0,0.2,0,0.3,0c0.2,0,0.3,0,0.4-0.1c0.1,0,0.2,0,0.3,0.1c0.2-0.1,0.4-0.2,0.7-0.2
		c0.3,0,0.5,0,0.8-0.1c0.7-0.2,1.1-0.3,1.4-0.5c0.2-0.2,0.5-0.2,0.8-0.2c0.2-0.2,0.4-0.3,0.7-0.4c0.2-0.1,0.4-0.2,0.7-0.3
		c0.1-0.1,0.2-0.2,0.3-0.3c0.1-0.1,0.2-0.2,0.3-0.2c0.1-0.1,0.2-0.2,0.3-0.3c0.1,0,0.2-0.1,0.4-0.2c0.3-0.2,0.5-0.3,0.5-0.3
		c0,0,0-0.1,0.1-0.1c0.2-0.2,0.4-0.3,0.5-0.5c0.1-0.1,0.3-0.3,0.5-0.3l0.4-0.6c0.2-0.3,0.3-0.5,0.3-0.5c0,0,0.1,0,0.1-0.1
		c0.2-0.5,0.3-0.7,0.3-0.8c0-0.1,0.1-0.2,0.2-0.2c-0.1-0.2-0.1-0.3-0.1-0.4c0-0.1,0.1-0.2,0.1-0.4c0.7-0.3,1.2-0.3,1.4,0
		c0,0.5,0.1,1,0.2,1.6c-0.2,0.2-0.3,0.4-0.4,0.4c0,0.1-0.1,0.2-0.1,0.3c-0.1,0.2-0.2,0.3-0.2,0.3c-0.1,0.1-0.1,0.1-0.2,0.2
		c-0.2,0.4-0.3,0.6-0.3,0.6c-0.2,0.3-0.3,0.4-0.3,0.5c0,0.1-0.1,0.1-0.2,0.1c-0.3,0.3-0.4,0.5-0.4,0.6c0,0.1-0.1,0.1-0.3,0.2
		c-0.2,0.2-0.3,0.3-0.3,0.4c0,0.1-0.1,0.1-0.2,0.2c-0.5,0.3-0.7,0.4-0.7,0.4c0,0,0,0.1-0.1,0.1c-0.4,0.2-0.7,0.4-0.7,0.6
		c-0.2,0-0.3,0-0.3,0.1c-0.1,0-0.2,0.1-0.3,0.1c-0.1,0.1-0.2,0.2-0.3,0.3c-0.1,0.1-0.2,0.2-0.3,0.3c-0.1,0.1-0.2,0.2-0.3,0.2
		c-0.1,0.1-0.3,0.1-0.4,0.1c-0.2,0-0.3,0-0.3,0.1c-0.1,0-0.2,0.1-0.3,0.2c-0.4,0.1-0.7,0.2-0.8,0.3c-0.2,0-0.3,0.1-0.4,0.1
		s-0.3,0-0.4,0.1c-0.3,0.2-0.5,0.2-0.6,0.2c-0.1,0-0.2,0-0.3,0.1L39.8,91.2z"/>
	<path fill="#DA942F" d="M66.8,74.6c0.3,0.2,0.5,0.3,0.5,0.3c0,0,0,0.1,0,0.2c0.2,0.1,0.3,0.2,0.5,0.4c0.1,0.2,0.2,0.4,0.1,0.6
		c0.2,0.5,0.2,0.8,0.2,0.9c-0.1,0.2-0.1,0.3,0,0.4c0,0.5,0.1,1,0.1,1.2s0,0.5,0.1,0.8c0,0.7-0.1,1.1-0.2,1.3
		c-0.1,0.2-0.1,0.4-0.2,0.6c0,0.3-0.1,0.5-0.1,0.7s-0.1,0.4-0.3,0.5c0,0.4-0.1,0.6-0.2,0.8c-0.1,0.1-0.3,0.3-0.3,0.5
		c-0.2,0.1-0.3,0.2-0.4,0.3c-0.1,0.1-0.2,0.2-0.3,0.3c-0.3,0-0.6,0.2-0.8,0.4c-0.2,0.2-0.5,0.3-0.8,0.4c-0.3,0.1-0.6,0.2-0.8,0.4
		c-0.3,0-0.5,0-0.5,0.1c0,0.1-0.1,0.1-0.2,0.2c-0.3,0-0.6,0.1-0.9,0.2c-0.3,0.1-0.7,0.1-1,0c-0.3,0.1-0.4,0.1-0.6,0.1
		c-0.1,0-0.3-0.1-0.4-0.1c-0.4-0.1-0.6-0.1-0.8-0.1c-0.1,0-0.2,0-0.3-0.2c-0.5,0-0.8-0.2-1-0.3c-0.2-0.2-0.5-0.3-0.9-0.3
		c-0.1-0.2-0.3-0.4-0.5-0.4s-0.3-0.2-0.4-0.4c-0.3-0.3-0.6-0.4-0.7-0.5c-0.1-0.1-0.2-0.2-0.2-0.4c-0.2,0-0.3-0.1-0.3-0.2
		c-0.1-0.1-0.2-0.2-0.3-0.3c-0.3-0.5-0.3-0.7-0.3-0.8c0.1,0,0.1-0.1,0-0.1c-0.2-0.4-0.3-0.6-0.3-0.7c0-0.1-0.1-0.2-0.2-0.4
		c-0.1-0.3-0.2-0.4-0.2-0.5c0-0.1,0-0.2-0.1-0.3c0-0.2,0-0.4-0.1-0.5c-0.1-0.1,0-0.3,0.1-0.4c-0.1-0.6-0.1-1-0.1-1.4
		c0.1-0.3,0.1-0.6,0-0.8c0.1-0.3,0.2-0.5,0.2-0.6c0-0.1,0-0.1-0.1-0.1C54,76.4,54,76.2,54,76c0-0.2,0-0.4,0.1-0.6
		c0.3-0.5,0.5-1,0.6-1.3c0.2,0,0.3-0.1,0.4-0.2c0-0.1,0.1-0.3,0.3-0.3c0.3-0.4,0.5-0.7,0.7-0.8c0.2-0.1,0.4-0.3,0.5-0.5
		c0.4-0.3,0.7-0.5,1.1-0.6c0.3-0.1,0.6-0.3,0.9-0.5l0.8-0.3c0.4,0,0.7,0,0.8,0s0.3-0.1,0.4-0.2c0.2,0.1,0.5,0.1,0.8,0.2
		c0.3,0,0.6,0,0.7-0.1c0.3,0.1,0.5,0.2,0.6,0.2c0.1,0,0.1,0,0.2,0c0.4,0.3,0.6,0.4,0.8,0.4c0.5,0.3,0.8,0.5,0.9,0.6
		c0.1,0.1,0.3,0.2,0.4,0.3c0.2,0.5,0.5,0.9,0.9,0.9c0.1,0.3,0.2,0.6,0.4,0.8C66.6,74,66.7,74.3,66.8,74.6z M59,84.3
		c0.2,0.1,0.4,0.2,0.6,0.3c0.2,0.1,0.4,0.1,0.6,0.1c0.5,0.1,0.8,0.1,0.8,0.1c0,0,0.1-0.1,0.1-0.1c0.3,0,0.5,0.1,0.6,0.1
		c0.1,0,0.1,0,0.2,0c0.5-0.1,0.7-0.2,0.8-0.2c0,0,0.1,0,0.2,0c0.4-0.2,0.7-0.3,0.8-0.3c0.1,0,0.2,0,0.3,0c0.6-0.5,1-0.8,1.3-1
		c0.3-0.2,0.5-0.3,0.5-0.4c0-0.1,0.1-0.1,0.3-0.2c0-0.3,0-0.5,0.1-0.6c0.1-0.2,0.1-0.4,0.1-0.7c0.2-0.3,0.2-0.6,0.2-0.9l0.1-0.8
		c0-0.7,0-1.2,0.1-1.5c0-0.4,0-0.7,0-1c0-0.2-0.1-0.3-0.2-0.4c-0.1-0.1-0.1-0.2,0-0.4c-0.3-0.4-0.6-0.6-0.8-0.7L65.1,75
		c-0.3-0.4-0.5-0.6-0.6-0.6c0,0-0.1,0-0.2-0.1c-0.3-0.3-0.4-0.4-0.5-0.4c-0.1,0-0.2,0-0.3-0.1c0-0.2-0.1-0.3-0.2-0.4
		c-0.1-0.1-0.2-0.2-0.2-0.4c-0.2-0.1-0.3-0.2-0.5-0.3c-0.1-0.1-0.3-0.2-0.5-0.3c-0.3,0-0.6,0.1-0.7,0c-0.1,0-0.2,0-0.3,0
		s-0.2,0-0.3,0c-0.1,0-0.3,0-0.4,0c-0.2,0-0.4,0-0.5,0c-0.1,0-0.2,0.1-0.3,0.1c-0.5,0.2-0.8,0.3-0.9,0.3s-0.2,0.1-0.3,0.1
		c-0.5,0.4-0.8,0.7-0.8,0.9c-0.3,0-0.6,0-0.7,0.2c-0.1,0.2-0.3,0.3-0.5,0.4c0,0.2-0.1,0.3-0.2,0.4c-0.1,0.1-0.2,0.2-0.2,0.4
		c-0.3,0.3-0.4,0.4-0.4,0.5c0,0.1-0.1,0.2-0.2,0.2c0.1,0.2,0.1,0.4-0.1,0.6c-0.1,0.2-0.2,0.4-0.1,0.7c-0.2,0.4-0.3,0.6-0.3,0.7
		c0,0,0.1,0.1,0.1,0.3c0,0.5,0,0.8-0.1,1c0,0.2,0,0.3,0,0.4c0.1,0.5,0.2,0.8,0.3,0.8c0.2,0.5,0.3,0.8,0.3,0.9c0,0.1,0,0.2,0.1,0.3
		c0.4,0.4,0.6,0.7,0.7,0.8c0.1,0.1,0.2,0.3,0.3,0.3c0.4,0.3,0.6,0.4,0.7,0.4c0,0,0.1,0,0.1,0c0.5,0.4,0.7,0.7,0.8,1.1H59z"/>
	<path fill="#DA942F" d="M92.8,86.3c0.4,0,0.6,0,0.7-0.1c0-0.1,0.1-0.1,0.2-0.1c0.2,0,0.4,0.1,0.5,0.2c0.1,0.1,0.3,0.1,0.5,0.1
		c0.3,0.4,0.5,0.6,0.5,0.7c0,0,0,0.1,0,0.2c0.2,0.1,0.3,0.3,0.4,0.5c0.1,0.2,0.3,0.3,0.5,0.5c-0.2,0.5-0.3,0.8-0.3,0.9
		c0,0.1-0.1,0.2-0.1,0.3c-0.1,0.1-0.2,0.2-0.3,0.3c-0.1,0.1-0.2,0.3-0.3,0.4c-0.2,0.2-0.3,0.4-0.5,0.5c-0.2,0.1-0.4,0.3-0.6,0.5
		c-0.5,0-0.8,0.1-1.1,0.3c-0.3,0.1-0.6,0-0.9-0.3c-0.4,0-0.6,0-0.7,0c0,0-0.1-0.1-0.2-0.1c-0.6-0.2-1-0.3-1.1-0.4
		c-0.1-0.3-0.2-0.4-0.3-0.4c-0.1,0-0.2,0-0.3-0.1c-0.2-0.3-0.3-0.5-0.3-0.7c0-0.1,0-0.3-0.1-0.4c-0.2-0.5-0.3-0.8-0.4-0.9
		c0.1-0.5,0-0.8-0.1-1.1c0-0.1,0.1-0.3,0-0.4c0-0.1,0-0.2,0.1-0.3c0-0.5,0-0.9,0-0.9s-0.1-0.2-0.1-0.3c0.1-0.4,0.2-0.7,0.2-0.8
		c0-0.1,0-0.2,0-0.3c0.1-0.8,0.2-1.4,0.2-1.7c0-0.3,0-0.6,0.1-0.7c0.1-0.1,0.1-0.3,0.1-0.4c0-0.3,0-0.5,0-0.7c0.1-0.1,0.1-0.3,0-0.5
		c0.1-0.5,0.2-0.8,0.3-0.9c0-0.2,0.1-0.3,0.1-0.4c0.1-0.3,0.1-0.5,0.1-0.8s0.1-0.5,0.2-0.8c-0.1-0.1-0.1-0.3-0.1-0.5
		c0-0.3,0-0.4-0.2-0.4c0.1-0.1,0.1-0.2,0.1-0.4s0-0.3-0.1-0.4c0-0.6,0-1.1,0-1.4c0-0.4,0-0.7-0.2-1c0-0.5-0.1-0.8-0.1-0.9
		s-0.1-0.1-0.3-0.1c0.1-0.3,0.1-0.4,0-0.5c-0.1-0.1-0.1-0.1-0.2-0.2c-0.1-0.4-0.2-0.6-0.3-0.6c-0.1,0-0.2,0-0.3-0.1
		c-0.1-0.1-0.2-0.2-0.2-0.3c-0.1-0.1-0.1-0.2-0.2-0.4c-0.2-0.1-0.4-0.2-0.5-0.3c-0.1-0.1-0.3-0.2-0.5-0.2c-0.2-0.1-0.3-0.2-0.4-0.3
		c-0.1-0.1-0.3-0.1-0.4-0.2c-0.2,0-0.3-0.1-0.5,0c-0.2,0-0.3,0-0.4-0.1c-0.2,0.1-0.3,0.1-0.4,0.1c-0.1,0-0.2,0-0.3,0
		c-0.4,0.1-0.7,0.1-0.8,0.1c-0.2,0-0.4,0.1-0.6,0.1c-0.2,0-0.4,0.2-0.4,0.4c-0.5-0.1-0.9,0.1-1.1,0.5c-0.4,0.2-0.6,0.3-0.7,0.4
		c-0.1,0.1-0.1,0.2-0.2,0.3c-0.3,0.1-0.5,0.2-0.5,0.3c0,0.1,0,0.1-0.1,0.2L79.7,72c-0.3,0.2-0.6,0.3-0.7,0.4
		c-0.1,0.1-0.2,0.2-0.2,0.3c-0.1,0.2-0.1,0.4-0.2,0.4c0,0.1-0.1,0.2-0.2,0.3L78.2,74c-0.1,0.3-0.2,0.4-0.3,0.5
		c-0.1,0.1-0.1,0.2-0.1,0.3c0.2,0.6,0.3,1,0.3,1.2c0,0.2,0.1,0.4,0.2,0.6c0.1,0.3,0.1,0.5,0.2,0.6c0,0.1,0.1,0.2,0.2,0.3
		c-0.1,0.1-0.1,0.2-0.1,0.4c0,0.2,0,0.3-0.1,0.3c0.1,0.3,0.2,0.7,0.3,1.1c0.1,0.3,0.1,0.5,0.1,0.6c0,0,0,0.1,0,0.2
		c0.1,0.3,0.1,0.5,0.2,0.7c0,0.2,0.1,0.4,0.2,0.5c0.1,0.3,0.1,0.6,0.1,0.9c0.1,0.3,0.1,0.6,0.1,0.7c0.1,0.2,0.1,0.4,0.1,0.7
		c0,0.2,0,0.4,0.1,0.5c-0.2,0.4-0.2,0.6-0.2,0.6c0,0,0.1,0.1,0.1,0.1c0,0.2-0.1,0.4,0,0.5c0,0.1,0,0.3,0,0.5c0,0.4,0,0.7,0.1,0.7
		c0,0.1,0,0.3,0,0.4c-0.1,0.1-0.1,0.3-0.1,0.5c0,0.2,0,0.4,0,0.6c0,0.2,0,0.4-0.1,0.6c-0.2,0.4-0.3,0.7-0.4,0.8
		c0,0.3-0.1,0.5-0.2,0.6c-0.1,0.1-0.1,0.2-0.2,0.3c-0.2,0.1-0.3,0.2-0.5,0.2c-0.1,0.1-0.3,0.2-0.3,0.3c-0.1,0-0.3,0-0.4,0.1
		C77.2,91,77.1,91,77,91.1c-0.3,0.1-0.4,0.3-0.6,0.5c-0.2,0-0.4,0-0.5,0.1s-0.3,0.1-0.4,0c-0.3-0.3-0.5-0.5-0.5-0.6c0,0,0-0.1,0-0.1
		l-0.7-0.8c-0.3-0.5-0.4-0.8-0.4-1c0-0.2,0-0.3-0.2-0.4c0.1-0.3,0.1-0.5,0-0.7c-0.1-0.2-0.1-0.4-0.1-0.6c0-0.3,0-0.5,0-0.6
		c0,0-0.1-0.1-0.1-0.2c0-0.1,0-0.2,0.1-0.4c0-0.2,0.1-0.4,0.1-0.7c0-0.2,0-0.4,0-0.5c0-0.1,0-0.3,0-0.5v-0.8c0-0.3,0.1-0.5,0.1-0.7
		c0-0.2,0.1-0.4,0.1-0.7c0-0.4,0-0.6,0-0.7c0.2-0.3,0.2-0.4,0.2-0.6c0-0.1,0-0.3,0-0.4c0.1-0.2,0.2-0.4,0.3-0.5
		c0.1-0.1,0.1-0.2,0.1-0.3c0-0.2,0.1-0.3,0.1-0.5c0-0.1,0-0.3,0.1-0.4c0-0.5,0.2-0.9,0.5-1.3c0-0.4,0-0.6,0.1-0.6c0,0,0.1,0,0.1-0.1
		c0.3-0.5,0.4-0.9,0.4-1s0-0.3,0.1-0.5c0.1-0.4,0.1-0.6,0.1-0.8c0-0.1,0-0.2,0-0.3c-0.1-0.3-0.2-0.6-0.3-0.7
		c-0.1-0.1-0.2-0.3-0.1-0.4c-0.2-0.5-0.3-0.7-0.4-0.8c-0.1-0.1-0.2-0.2-0.2-0.4c-0.3-0.3-0.4-0.5-0.4-0.8c0-0.2-0.1-0.4-0.2-0.5
		c-0.3-0.3-0.4-0.4-0.6-0.5c-0.3-0.2-0.4-0.2-0.5-0.2c-0.1,0-0.2,0-0.3,0c-0.5,0.3-1,0.4-1.3,0.3c-0.3-0.1-0.5-0.3-0.6-0.5
		c0.1-0.5,0.2-0.8,0.3-0.9c0.1-0.1,0.2-0.2,0.3-0.4c0.3,0,0.5,0,0.6-0.1c0.1-0.1,0.3-0.1,0.5-0.1c0.5-0.2,0.9-0.2,1.1-0.1
		c0.3,0.1,0.6,0.1,0.9,0.2c0.3,0.3,0.5,0.4,0.6,0.5c0.1,0.1,0.2,0.1,0.4,0.1c0,0.4,0.1,0.7,0.2,0.8c0.1,0.1,0.1,0.2,0.2,0.3
		c0.1,0.6,0.2,1,0.4,1.3c0.2,0.5,0.3,0.7,0.3,0.6c0,0,0.1,0,0.1,0.1c0.3-0.3,0.5-0.4,0.5-0.4c0.1,0,0.1-0.1,0-0.2
		c0.4-0.3,0.6-0.4,0.6-0.4c0,0,0-0.1-0.1-0.1c0.2-0.1,0.3-0.3,0.4-0.4c0.1-0.1,0.3-0.3,0.4-0.4c0.4-0.6,0.8-1,1.1-1.3
		c0.4-0.3,0.8-0.6,1.1-0.8c0.3-0.2,0.4-0.3,0.6-0.4c0.1-0.1,0.3-0.2,0.3-0.3c0.4,0.1,0.8,0.1,1.1-0.1c0.3-0.1,0.6-0.2,1-0.3
		c0.4-0.1,0.9-0.1,1.4-0.1c0.5,0.1,0.8,0.2,0.9,0.2s0.3,0,0.5,0c0.2,0,0.3,0.1,0.5,0.2c0.1,0.1,0.3,0.1,0.5,0.1
		c0.3,0.2,0.6,0.3,0.7,0.4s0.2,0.2,0.3,0.3c0.5,0.4,0.9,0.7,1,0.9c0.1,0.2,0.2,0.4,0.4,0.6c0.1,0.1,0.2,0.2,0.2,0.3
		c0,0.1,0.1,0.2,0.3,0.3c0.1,0.5,0.2,0.8,0.3,0.9c0.1,0.5,0.2,0.9,0.3,1.2c0.1,0.5,0.2,0.7,0.1,0.8c0,0-0.1,0.1-0.1,0.2
		c0.2,0.6,0.3,0.9,0.3,0.9c0,0.4,0,0.6,0.1,0.6c0,0,0.1,0.1,0.1,0.1c0,0.3,0,0.6,0,0.9c0,0.3,0,0.5-0.1,0.7c0,0.4,0.1,0.6,0.1,0.7
		c0,0.1,0,0.2,0,0.3c-0.2,0.6-0.2,0.9-0.2,1c-0.2,0.2-0.2,0.5-0.2,0.8c0,0.3,0,0.6-0.3,0.8c0,0.1,0.1,0.2,0,0.3c0,0.1,0,0.3,0,0.5
		c0,0.3,0,0.5,0,0.6c0,0-0.1,0.1-0.1,0.1c0,0.3-0.1,0.6-0.1,0.7c0,0.1,0,0.3,0,0.5c0,0.5,0,0.9-0.1,1.1c0,0.4,0,0.7-0.1,0.9
		c0,0.3,0,0.5,0,0.7s0,0.3,0.1,0.3c0,0.2-0.1,0.5-0.1,0.8c0,0.3,0,0.5,0,0.6c0.1,0.1,0.1,0.2,0.2,0.3c0,0.5,0,0.8,0.1,0.9
		c0,0.1,0.1,0.3,0.1,0.4c0.2,0.1,0.3,0.2,0.4,0.4c0.1,0.2,0.2,0.3,0.4,0.4c0.2,0,0.4,0,0.6,0c0.2,0,0.4,0.1,0.6,0.1
		c0.5-0.2,0.7-0.3,0.7-0.3c0,0,0,0,0-0.1c0.2-0.3,0.3-0.4,0.3-0.6c0-0.1,0-0.2-0.1-0.3c-0.3-0.3-0.6-0.5-0.8-0.6s-0.3-0.2-0.3-0.5
		c0.1-0.4,0.2-0.6,0.1-0.7C92.7,86.6,92.7,86.5,92.8,86.3z M76.2,79.2c0,0.3,0,0.5,0,0.8c0,0.3-0.1,0.5-0.2,0.8
		c-0.1,0.1-0.1,0.2-0.2,0.3c0,0.1-0.1,0.3-0.1,0.5c0,0.1,0,0.2,0,0.3c0,0.1,0,0.3,0,0.3c0,0.3,0,0.5,0,0.5c0,0.1-0.1,0.1-0.1,0.2
		c-0.1,0.4-0.1,0.6-0.1,0.6c0,0,0,0.1,0,0.2c-0.1,0.5-0.2,0.9-0.1,1c0,0.1,0,0.3,0,0.5c-0.1,0.4-0.1,0.7-0.1,0.8
		c0,0.1,0.1,0.2,0.1,0.3c0,0.3,0,0.5-0.1,0.8c0,0.3,0,0.6,0,0.9c0.2,0.5,0.3,0.8,0.3,0.8c0,0.1,0.1,0.1,0.2,0.2
		c0.1,0.2,0.1,0.4,0.2,0.4c0,0.1,0.1,0.1,0.2,0.2c0.2,0,0.3,0,0.4-0.1c0.1-0.1,0.2-0.1,0.3-0.2c0-0.2,0.1-0.3,0.2-0.4
		c0.1-0.1,0.2-0.2,0.3-0.3c0.1-0.5,0.1-0.9,0.2-1.1c0-0.2,0-0.4,0-0.6c0-0.5-0.1-0.7-0.2-0.7c-0.1,0-0.1,0-0.1-0.1
		c0.1-0.4,0.2-0.7,0.3-0.9c0-0.2,0.1-0.3,0.1-0.5c0-0.6-0.1-1.1-0.1-1.4s0-0.6,0.1-0.8c-0.2-0.3-0.2-0.5-0.2-0.6c0-0.1,0-0.2,0-0.3
		c-0.1-0.3-0.2-0.5-0.1-0.5c0.1,0,0.1-0.1,0-0.2c-0.2-0.4-0.3-0.7-0.3-0.8c0-0.1,0-0.2,0.1-0.3c-0.2-0.1-0.2-0.2-0.2-0.4
		c0.1-0.2,0.1-0.3,0-0.4c-0.2-0.4-0.4-0.6-0.4-0.6c-0.1,0.1-0.1,0.3-0.2,0.4C76.3,79,76.3,79.1,76.2,79.2z"/>
	<path fill="#DA942F" d="M105.7,61.4c-0.1,0.5-0.2,0.8-0.3,0.9c-0.1,0.1-0.2,0.4-0.1,0.7c-0.3,0.4-0.5,0.7-0.5,0.8
		c0,0.1,0,0.2,0,0.3c-0.2,0.4-0.3,0.6-0.4,0.8c0,0.3,0,0.5-0.1,0.5c-0.1,0-0.1,0.1-0.2,0.2c-0.1,0.3-0.2,0.7-0.2,1.2s-0.1,0.9,0,1.2
		c0.3,0.1,0.6,0.1,0.8,0.1c0.2,0,0.4-0.1,0.6-0.1c0.7,0,1.2,0,1.3,0c0.4,0,0.6,0.1,0.8,0c0.1,0,0.2-0.1,0.3-0.2
		c0,0.1,0.2,0.1,0.4,0.2c0.2,0,0.4,0,0.4-0.1c0.2,0.2,0.4,0.4,0.6,0.4c0.2,0.6,0.2,0.9,0,1s-0.3,0.2-0.5,0.3c-0.8,0.3-1.2,0.3-1.3,0
		c-0.5-0.1-0.9-0.1-1.2-0.2c-0.3,0-0.7,0-1.2,0.1c-0.4,0-0.7,0.1-0.9,0.1c-0.3,0-0.4,0.1-0.6,0.2c0,0.3,0,0.5-0.1,0.7
		s-0.1,0.4,0,0.6c-0.2,0.4-0.3,0.6-0.3,0.7c0,0.1,0,0.2,0,0.4c0,0.1-0.1,0.2-0.1,0.3c0,0.1-0.1,0.3-0.2,0.3c0.1,0.3,0.1,0.7,0,0.9
		c0.2,0.4,0.2,0.6,0.1,0.5c-0.1,0-0.2,0-0.2,0.2c0,0.2,0.1,0.3,0.1,0.4s0,0.2,0.1,0.4c0,0.5,0,0.8-0.1,1c0,0.2-0.1,0.4-0.1,0.6
		c0,0.4,0.1,0.7,0,0.8c0,0.1,0,0.2,0,0.3c0,0.2,0,0.5,0,0.8c0,0.3,0.1,0.5,0.1,0.7c0,0.1,0.1,0.3,0.1,0.4c0,0.1,0.1,0.2,0,0.3
		c0,0.1,0,0.2,0,0.4c0,0.2,0.1,0.3,0.2,0.5c0.1,0.1,0.1,0.3,0.2,0.5c0,0.1,0,0.2-0.1,0.3c0,0.1,0,0.3,0.1,0.4c0.2,0.6,0.3,1,0.3,1.1
		c0,0.1,0,0.3,0.1,0.5c0.2,0.3,0.3,0.6,0.3,0.7c0,0.1,0,0.3,0.1,0.4c0.1,0.2,0.2,0.4,0.3,0.6c0.1,0.2,0.2,0.4,0.3,0.5
		c0,0.3,0,0.5,0.1,0.6s0.2,0.3,0.3,0.5c0.4,0.4,0.5,0.6,0.5,0.6c0.3,0.3,0.4,0.4,0.6,0.4c0.1,0,0.2,0.2,0.2,0.4
		c0.4,0.1,0.8,0.3,1.1,0.6c0.2-0.2,0.4-0.2,0.5-0.2c0.1,0,0.2,0.1,0.3,0.2c0.1,0.1,0.2,0.2,0.3,0.2c0.1,0.1,0.2,0.1,0.4,0.2
		c0,0.2,0,0.3,0,0.5c0,0.1,0.1,0.2,0.2,0.2c-0.4,0.3-0.7,0.4-0.8,0.4c-0.1,0-0.2,0-0.2,0c-0.4,0.5-0.6,0.6-0.8,0.6
		c-0.2-0.1-0.4-0.1-0.6-0.1c-0.3-0.3-0.4-0.5-0.5-0.5c-0.1,0-0.2-0.1-0.2-0.3c-0.6-0.4-1-0.6-1.4-0.6c-0.4-0.4-0.7-0.7-0.9-0.8
		s-0.3-0.3-0.5-0.4c0-0.4,0-0.6-0.1-0.7c-0.1,0-0.2-0.1-0.3-0.2c-0.2-0.4-0.3-0.8-0.3-1c0-0.3-0.1-0.5-0.3-0.7c0-0.3,0-0.5-0.1-0.6
		c-0.1-0.1-0.2-0.3-0.3-0.5c0-0.2,0-0.4,0-0.6c0-0.2,0-0.4-0.1-0.6c-0.2-0.5-0.3-0.8-0.3-0.8c0,0-0.1-0.1-0.1-0.1
		c0-0.3,0-0.5-0.1-0.7c-0.1-0.2-0.1-0.5,0-0.7c-0.1-0.4-0.2-0.8-0.3-1c0-0.3-0.1-0.5-0.1-0.7c0-0.1,0-0.2,0-0.3s0-0.2,0-0.3
		c0-0.2-0.1-0.5-0.1-0.8c0-0.3,0-0.6,0-0.9c0-0.1,0-0.3,0-0.4c0-0.1,0.1-0.3,0.1-0.4c0-0.5,0.1-0.7,0-0.8c0,0,0-0.1,0-0.1
		c0-0.1,0-0.3,0-0.4c0-0.2,0.1-0.3,0.1-0.4c-0.1-0.2-0.2-0.4-0.1-0.7c0.1-0.3,0.1-0.5,0.1-0.8c0-0.1,0-0.3,0-0.4
		c0-0.2,0-0.3-0.1-0.4c0-0.3,0-0.5,0-0.6c0-0.1,0-0.2,0.1-0.3c0.1-0.5,0.2-0.8,0.2-0.8c0,0,0,0,0-0.1c0-0.1,0-0.3,0.1-0.5
		c0.1-0.2,0.1-0.4,0-0.6c-0.2,0-0.4,0.1-0.7,0.2c-0.3,0.1-0.5,0.1-0.6-0.1c-0.1,0.1-0.2,0.1-0.3,0.2c-0.1,0-0.3,0.1-0.4,0.1
		c-0.4,0.1-0.7,0.2-1,0.3c-0.2,0.1-0.5,0.1-0.8,0c-0.3-0.4-0.4-0.6-0.5-0.8c-0.1-0.1-0.1-0.3,0-0.6c0.2-0.1,0.4-0.1,0.7-0.2
		c0.3,0,0.5-0.1,0.6-0.3c0.2,0,0.4,0.1,0.6,0c0.2,0,0.5-0.1,0.8-0.1c0.1-0.2,0.3-0.2,0.6-0.2c0.3,0,0.6,0,0.8-0.1
		c0.5-0.3,0.8-0.4,0.9-0.6c0-0.1,0.1-0.3,0.2-0.6c0.1-0.3,0.2-0.5,0.1-0.6c0-0.1,0-0.2,0-0.3c0.1-0.3,0.1-0.5,0.2-0.6
		c0-0.1,0-0.2-0.1-0.2c0.3-0.3,0.4-0.5,0.3-0.6c0,0,0-0.1,0-0.2c0.2-0.3,0.3-0.5,0.3-0.6c0-0.1,0.1-0.2,0.2-0.2c0-0.3,0-0.5,0.2-0.7
		c0.1-0.1,0.3-0.3,0.4-0.5c0-0.4,0.1-0.8,0.2-1.2c0.3-0.5,0.5-0.7,0.6-0.7s0.1,0,0.2-0.1c0.3-0.1,0.5-0.1,0.6-0.2
		c0.1,0,0.1-0.1,0.2-0.1c0.2,0.3,0.3,0.4,0.3,0.5C105.5,61.2,105.6,61.3,105.7,61.4z"/>
	<path fill="#DA942F" d="M113.7,78.2c-0.2,0.1-0.3,0.2-0.3,0.4c0,0.2,0,0.3,0,0.4c-0.3,0.6-0.3,1-0.1,1.3c-0.1,0.3-0.1,0.8-0.1,1.4
		c0,0.3,0.1,0.6,0.2,0.8c0.1,0.3,0.2,0.6,0.3,0.9c0.1,0.2,0.2,0.3,0.3,0.5c0.1,0.2,0.2,0.3,0.3,0.5c0.1,0.2,0.2,0.3,0.3,0.4
		c0,0.1,0.1,0.2,0.3,0.3l0.4,0.8c0.5,0.3,0.7,0.6,0.8,0.7c0,0.1,0.2,0.1,0.4,0.1c0.1,0.2,0.2,0.3,0.3,0.3c0.1,0,0.3,0.1,0.3,0.3
		c0.4,0.1,0.7,0.2,0.9,0.3c0.3,0.1,0.6,0.2,1.1,0.2c0.5,0.1,0.9,0.1,1,0.2c0.1,0,0.3,0.1,0.5,0.2c0.3,0,0.5-0.1,0.6-0.1
		c0.1,0,0.2-0.1,0.3-0.1c0.5,0,0.8,0,0.9-0.1s0.4-0.1,0.6-0.1c0.3-0.3,0.4-0.4,0.5-0.3c0.1,0,0.1,0,0.1-0.2c0.2,0,0.4-0.1,0.5-0.2
		c0.1-0.1,0.3-0.3,0.5-0.3c0.2-0.3,0.4-0.4,0.5-0.5s0.2-0.2,0.3-0.2c0.4-0.1,0.6-0.1,0.7-0.1c0.3,0.4,0.3,0.6,0.3,0.8
		c-0.1,0.1-0.1,0.3-0.1,0.6c-0.2,0.1-0.4,0.3-0.5,0.4c-0.1,0.2-0.3,0.4-0.4,0.6c-0.2,0-0.4,0-0.5,0.1c-0.1,0.1-0.2,0.1-0.4,0.2
		c-0.5,0.3-0.8,0.4-0.9,0.6c-0.1,0.1-0.3,0.2-0.5,0.1c-0.5,0.2-0.9,0.3-1.1,0.4c-0.2,0-0.5,0.1-0.7,0.2c-0.4,0-0.8,0-1,0
		s-0.5,0-0.8,0c-0.4,0-0.7,0-0.9-0.1s-0.4-0.1-0.6-0.2c-0.3,0.1-0.5,0.1-0.6,0s-0.1-0.1-0.1-0.1c-0.4-0.1-0.6-0.2-0.8-0.2
		c-0.1,0-0.2-0.1-0.2-0.2c-0.3-0.1-0.4-0.2-0.5-0.2s-0.3-0.1-0.5-0.2c-0.3-0.3-0.4-0.4-0.5-0.5c-0.1-0.2-0.2-0.3-0.3-0.3
		c-0.1-0.1-0.3-0.2-0.3-0.3c-0.4-0.3-0.6-0.5-0.5-0.5c-0.2-0.2-0.4-0.4-0.6-0.7c-0.2-0.2-0.4-0.5-0.4-0.8c-0.2-0.1-0.3-0.4-0.5-0.7
		c-0.1-0.2-0.2-0.3-0.2-0.4c0-0.1,0-0.2-0.1-0.3c-0.1-0.4-0.2-0.7-0.2-0.8c0-0.2,0-0.3-0.2-0.4c0-0.2,0-0.4-0.1-0.5
		c-0.1-0.1-0.2-0.3-0.3-0.4c0.1-0.2,0.2-0.5,0.1-0.8c-0.1-0.3,0-0.6,0.1-0.9c0.1-0.6,0.1-1,0.1-1.1c0-0.1,0-0.3,0-0.4
		c0.2-0.4,0.3-0.7,0.3-0.8c0-0.1,0.1-0.3,0.1-0.5c-0.1-0.6-0.1-0.9,0-1c0.1-0.1,0.2-0.2,0.3-0.3c0.2,0,0.4-0.1,0.7-0.3
		c0.3-0.1,0.4-0.4,0.4-0.7c0.3-0.2,0.4-0.4,0.6-0.6c0.1-0.2,0.3-0.4,0.5-0.6c0.4-0.4,0.7-0.7,0.8-0.8c0.2-0.1,0.4-0.2,0.7-0.2
		c0.2-0.1,0.4-0.2,0.5-0.4c0.2,0,0.4,0,0.5-0.1c0.1,0,0.3-0.1,0.4-0.2c0.3-0.3,0.6-0.5,0.7-0.5c0.1,0,0.2-0.1,0.3-0.2
		c0.2,0,0.3,0,0.4-0.1s0.2-0.2,0.3-0.2c0.5,0,0.8,0,0.9-0.1c0.1-0.1,0.3-0.1,0.4-0.1c0.6,0,1.1-0.1,1.5-0.1c0.4,0,0.7,0,1,0
		c0.1,0.1,0.2,0.1,0.4,0.1s0.3,0,0.5,0.1c0.2,0,0.3,0.1,0.4,0.2c0,0.1,0.1,0.1,0.3,0.1c0.1,0.1,0.2,0.2,0.3,0.3
		c0.1,0.1,0.3,0.2,0.3,0.3c0.2,0.5,0.3,0.9,0.4,0.9c0.1,0.1,0.1,0.2,0.2,0.3c0,0.4-0.1,0.6-0.1,0.7c0,0-0.1,0.1-0.1,0.1
		c0,0.3-0.1,0.5-0.2,0.5c-0.1,0.1-0.1,0.1,0,0.2c-0.1,0.1-0.2,0.2-0.3,0.3c-0.1,0.1-0.1,0.3-0.1,0.5c-0.3,0.3-0.5,0.5-0.6,0.6
		c-0.2,0.1-0.3,0.2-0.4,0.3c-0.3,0.2-0.5,0.3-0.7,0.4c-0.1,0.1-0.2,0.2-0.3,0.3c-0.1,0.1-0.3,0.2-0.3,0.3c-0.6,0.3-1.1,0.4-1.5,0.5
		s-0.8,0.2-1.1,0.4c-0.3-0.1-0.5-0.1-0.5,0c0,0.1-0.1,0.1-0.2,0.1c-0.3,0-0.6,0-0.8,0.1c-0.1,0-0.3,0.1-0.4,0.1
		c-0.1,0-0.3,0-0.4-0.1c-0.4,0-0.8,0.1-1.1,0.2c-0.3,0.1-0.5,0.1-0.7-0.1c-0.2,0.1-0.4,0.1-0.7,0s-0.5-0.2-0.7-0.3L113.7,78.2z
		 M123.1,72.7c-0.5-0.1-0.8-0.3-1.1-0.4c-0.1,0-0.3,0-0.4,0.1c-0.2,0.1-0.3,0.1-0.4,0.1c-0.4,0-0.7-0.1-0.8,0
		c-0.1,0-0.2,0.1-0.3,0.1c-0.6,0.2-0.9,0.3-1.1,0.4c-0.1,0-0.3,0.1-0.4,0.2c-0.2,0-0.3,0-0.4,0.1c-0.1,0.1-0.2,0.1-0.4,0.1
		c-0.1,0.1-0.2,0.2-0.3,0.3s-0.2,0.1-0.3,0.2c-0.4,0.2-0.6,0.3-0.6,0.4c-0.1,0.1-0.2,0.1-0.3,0.2c-0.1,0-0.2,0.1-0.4,0.2
		c-0.1,0.2-0.3,0.4-0.5,0.6c-0.2,0.2-0.4,0.4-0.6,0.6c-0.2,0.2-0.3,0.3-0.3,0.4c0,0.1-0.1,0.1-0.1,0.2c0.2,0,0.3,0,0.4,0.1
		c0.1,0.1,0.2,0.1,0.4,0c0.3,0.2,0.4,0.2,0.6,0.2c0.1,0,0.3-0.1,0.5-0.1c0.4,0,0.7,0.1,0.7,0c0.1,0,0.1,0,0.2,0c0.1,0,0.2,0,0.3,0.1
		c0.1,0,0.3,0,0.4,0c0.4-0.1,0.6-0.1,0.7-0.1c0.1,0,0.1,0,0.2,0c0.2,0,0.3-0.1,0.4-0.2s0.2-0.1,0.3-0.1c0.3,0,0.5,0,0.6-0.1
		c0.1-0.1,0.3-0.1,0.4,0c0.6-0.5,1.1-0.7,1.4-0.7c0.4-0.4,0.7-0.7,0.8-0.7c0.1-0.1,0.2-0.2,0.2-0.3c0.3-0.3,0.5-0.6,0.4-0.7
		c0-0.1,0-0.3,0.1-0.5c-0.2,0-0.3-0.1-0.3-0.2C123.3,72.9,123.2,72.8,123.1,72.7z"/>
	<path fill="#DA942F" d="M149.8,91.2c-0.1-0.1-0.3-0.1-0.7,0.1c-0.4,0.1-0.6,0.1-0.6-0.1c-0.4,0-0.7,0-0.9,0c-0.6,0.1-1.1,0.1-1.5,0
		c-0.4-0.1-0.9-0.2-1.5-0.2c-0.4-0.1-0.7-0.2-0.8-0.2c-0.1,0-0.2-0.1-0.3-0.2c-0.5,0-0.8-0.1-0.8,0c0,0-0.1,0-0.2,0
		c-0.5-0.1-0.7-0.2-0.8-0.3c-0.1,0-0.1,0-0.2,0.1c-0.1-0.2-0.3-0.3-0.5-0.3c-0.3,0-0.5-0.1-0.6-0.3c-0.3-0.1-0.5-0.1-0.6-0.2
		c-0.1,0-0.1-0.1-0.2-0.2c-0.5-0.1-0.7-0.2-0.8-0.3c-0.1-0.1-0.3-0.2-0.5-0.2c-0.2-0.3-0.4-0.5-0.5-0.6c-0.4-0.1-0.6-0.2-0.7-0.3
		c0,0-0.1-0.1-0.1-0.3c-0.5-0.3-0.7-0.5-0.8-0.6c-0.1,0-0.2-0.1-0.3-0.3c-0.5-0.5-0.8-0.8-0.9-1c-0.2-0.2-0.3-0.4-0.4-0.7
		c-0.3-0.3-0.5-0.4-0.7-0.5c-0.1-0.1-0.3-0.2-0.3-0.4c-0.1-0.1-0.2-0.2-0.3-0.3c-0.1-0.1-0.2-0.3-0.4-0.3c-0.1-0.3-0.2-0.6-0.3-0.7
		c-0.3-0.5-0.5-0.8-0.6-0.9c-0.1-0.4-0.2-0.6-0.3-0.7c-0.1-0.1-0.1-0.3-0.1-0.4c0-0.1,0-0.3-0.1-0.4c-0.3-0.4-0.5-0.6-0.5-0.6
		c0,0-0.1-0.1-0.1-0.1c-0.1-0.1-0.1-0.3-0.1-0.4c0-0.1,0-0.2-0.1-0.3c0-0.3,0-0.5-0.2-0.7c-0.1-0.2-0.2-0.4-0.3-0.8
		c-0.3-0.4-0.4-0.6-0.3-0.8c0-0.1,0-0.3,0-0.3c0-0.2-0.1-0.4-0.2-0.7c-0.1-0.2-0.2-0.5-0.3-0.8c0-0.2-0.1-0.5-0.1-0.8
		c0-0.4-0.1-0.7-0.2-0.9c-0.1-0.5-0.2-1-0.2-1.3c0-0.3-0.1-0.6-0.2-0.9c0-0.9,0.1-1.6,0.1-2.1c0-0.5,0.1-1,0.3-1.4
		c-0.2-0.4-0.3-0.7-0.2-1c0.1-0.3,0.1-0.6,0-0.9l0.4-0.8c0.1-0.4,0.2-0.6,0.2-0.6c0,0,0-0.1,0-0.1c0.1-0.3,0.1-0.4,0.1-0.5
		c0-0.1,0-0.2,0.1-0.3c0.1-0.3,0.2-0.5,0.2-0.6s0.1-0.2,0-0.4c0.2,0,0.3-0.1,0.3-0.3c0-0.2,0.1-0.3,0.2-0.4c0-0.4,0-0.7,0.1-0.7
		c0.1-0.1,0.1-0.2,0.1-0.4c0.3-0.3,0.4-0.6,0.4-0.9c0.1,0,0.2-0.1,0.3-0.3c0-0.1,0.1-0.2,0.2-0.3c0.2-0.5,0.3-0.7,0.4-0.8
		c0.1-0.1,0.1-0.1,0.2-0.2c0.1-0.3,0.2-0.5,0.3-0.6c0.1,0,0.1-0.1,0-0.2c0.3-0.3,0.4-0.6,0.6-1c0.1-0.4,0.4-0.7,0.7-0.9
		c0.2-0.3,0.4-0.6,0.4-0.9c0.3-0.2,0.5-0.3,0.6-0.5c0.3-0.5,0.5-0.7,0.6-0.8c0.1,0,0.1-0.1,0.2-0.3c0.3-0.3,0.5-0.4,0.5-0.5
		c0.3-0.1,0.4-0.2,0.4-0.2c0-0.1,0.1-0.1,0.1-0.2c0.3-0.1,0.5-0.3,0.7-0.4c0.2-0.2,0.4-0.3,0.7-0.4c0.1-0.2,0.2-0.4,0.3-0.4
		c0.1-0.1,0.2-0.2,0.2-0.4c0.3-0.1,0.4-0.2,0.5-0.3c0.1-0.1,0.1-0.1,0.1-0.2c0.3-0.1,0.5-0.3,0.8-0.6c0.5-0.2,0.7-0.4,0.8-0.5
		c0.1-0.1,0.2-0.2,0.4-0.3c0.2-0.3,0.4-0.5,0.6-0.6c0.3,0,0.5-0.1,0.6-0.2c0-0.1,0.1-0.1,0.3-0.1c0.4-0.3,0.7-0.5,0.8-0.6
		c0.1,0,0.3-0.1,0.5-0.2c0.4-0.1,0.6-0.2,0.6-0.3c0,0,0.1-0.1,0.2-0.1c0.4-0.2,0.7-0.3,0.8-0.3c0.1,0,0.2-0.1,0.3-0.1
		c0.4-0.1,0.7-0.1,0.8-0.1c0.1,0,0.3,0,0.5-0.1c0.5-0.1,0.7-0.2,0.8-0.3c0.1-0.1,0.2-0.1,0.3-0.2l0.9-0.1c0.5,0.1,0.9,0.1,1,0.1
		c0.1,0,0.2,0,0.3,0.1c0.5,0.1,0.9,0.2,1.3,0.2c0.4,0,0.7,0.1,0.9,0.3c0.4-0.2,0.6-0.3,0.7-0.2c0.1,0.1,0.1,0.1,0.2,0.1
		c0.4,0,0.6,0.1,0.8,0.1c0.5,0.2,0.7,0.3,0.7,0.3c0,0,0,0.1,0,0.1c0.4,0.2,0.6,0.3,0.7,0.3c0,0,0,0,0,0.1c0.3,0,0.5,0.1,0.7,0.2
		c0.2,0.1,0.4,0.2,0.6,0.3c0.3,0.3,0.6,0.5,0.7,0.7c0.1,0.2,0.3,0.3,0.5,0.3c0.1,0.3,0.3,0.5,0.4,0.8c0.2,0.2,0.4,0.4,0.6,0.7
		c0.1,0,0.2,0.1,0.3,0.3c0.1,0.1,0.2,0.2,0.3,0.3c-0.1,0.1-0.1,0.2,0,0.3s0.1,0.2,0.2,0.3c0.1,0.1,0.1,0.3,0.2,0.4
		c0,0.1,0.1,0.3,0.3,0.3c0.2,0.5,0.3,0.7,0.3,0.8c0,0,0,0.1,0,0.2c0.4,0.4,0.6,0.7,0.5,0.8c0,0.2,0,0.3,0.1,0.4
		c0.1,0.3,0.2,0.5,0.4,0.7c0,0.1,0,0.3,0,0.4c0,0.1,0,0.3,0.2,0.4c0,0.3,0,0.5,0,0.7c0,0.3,0,0.6,0,0.8c0,0.2,0,0.3-0.1,0.5
		c0,0.5,0.1,0.8,0.1,0.9c0,0.1,0,0.1,0,0.2c0,0.6-0.1,1-0.3,1.2c-0.2,0.5-0.2,0.8-0.2,0.8c0,0,0,0.1,0,0.1c-0.3,0.4-0.4,0.6-0.3,0.6
		c0,0,0,0.1,0,0.2c-0.1,0.2-0.2,0.4-0.3,0.6c-0.1,0.2-0.2,0.4-0.2,0.7c-0.3,0.3-0.4,0.5-0.4,0.6c0,0-0.1,0.1-0.2,0.1
		c-0.1,0.3-0.2,0.5-0.3,0.6c-0.1,0.1-0.2,0.2-0.3,0.3c-0.3,0.3-0.5,0.5-0.6,0.6c-0.1,0.1-0.1,0.2,0,0.3c-0.2,0-0.3,0-0.4,0.1
		c-0.1,0.1-0.1,0.2-0.2,0.2c-0.2,0.1-0.3,0.2-0.4,0.3c-0.1,0-0.2,0.1-0.3,0.2c-0.1,0.1-0.4,0.2-0.7,0.4c-0.2,0.1-0.3,0.2-0.5,0.3
		c-0.1,0.1-0.3,0.2-0.4,0.3c-0.3,0-0.5,0.1-0.7,0.2c-0.1,0.1-0.3,0.1-0.6,0.1c-0.5,0.1-0.9,0.2-1.2,0.3c-0.3,0.1-0.6,0.1-0.9,0.2
		c-0.6,0-1,0-1.1,0c-0.1,0-0.3,0-0.5,0c-0.5-0.2-0.7-0.3-0.8-0.3c-0.1,0-0.2-0.1-0.3-0.1c-0.4,0-0.7,0-0.8-0.1
		c-0.1-0.1-0.3-0.1-0.5-0.2c-0.1-0.1-0.2-0.2-0.3-0.3c-0.1-0.1-0.3-0.2-0.5-0.2c0-0.2-0.1-0.3-0.2-0.4c-0.1-0.1-0.2-0.1-0.3-0.2
		c0-0.3-0.1-0.5-0.3-0.8c-0.1-0.5-0.2-0.9-0.2-1.3c0-0.5,0-0.9,0.1-1.2c0.1-0.3,0.2-0.5,0.1-0.8c0.1-0.1,0.1-0.3,0.2-0.5
		c0-0.2,0.1-0.4,0.2-0.5c0.2-0.1,0.4-0.2,0.5-0.3c0.1-0.1,0.3-0.2,0.4-0.4c0.2,0,0.3-0.1,0.4-0.2s0.2-0.2,0.4-0.3
		c0.2-0.1,0.4-0.1,0.6-0.1c0.2,0,0.4,0,0.6-0.1c0.5,0,0.8,0,1,0c0.2,0,0.4,0,0.6,0.1c0.1,0.3,0.2,0.4,0.3,0.5
		c0.1,0.1,0.1,0.1,0.2,0.2c0,0.5,0,0.8,0,1c-0.2,0-0.4,0.1-0.5,0.2c-0.1,0.1-0.3,0.1-0.5,0c-0.3-0.2-0.6-0.3-0.7-0.3
		c-0.1,0-0.2,0-0.2-0.1c-0.2,0.1-0.4,0.2-0.5,0.2c-0.1,0-0.3,0-0.5,0.1c-0.2,0.1-0.4,0.2-0.5,0.4c-0.1,0.2-0.3,0.4-0.5,0.5
		c0,0.4,0,0.7-0.1,0.7c-0.1,0.3-0.1,0.6,0,0.8c0.1,0.2,0.1,0.5,0,0.7c0.1,0.1,0.2,0.2,0.3,0.2c0.1,0.1,0.2,0.2,0.2,0.4
		c0.1,0.1,0.2,0.1,0.3,0.2c0.1,0,0.2,0.1,0.3,0.3c0.3,0,0.5,0,0.6,0.1s0.2,0.1,0.4,0.1c0.3,0.1,0.4,0.2,0.5,0.3
		c0,0.1,0.1,0.1,0.2,0.1c0.2-0.1,0.4-0.1,0.6-0.1c0.2,0,0.4,0,0.6,0c0.6-0.2,1-0.3,1.4-0.3c0.3,0,0.6,0,0.9-0.1
		c0.3-0.2,0.5-0.3,0.6-0.4c0.2,0,0.3-0.1,0.4-0.2c0.3-0.2,0.5-0.3,0.6-0.3c0.1,0,0.2-0.1,0.3-0.2l0.8-0.4c0.3-0.3,0.5-0.5,0.6-0.6
		c0.1-0.2,0.2-0.3,0.4-0.4c0-0.2,0.1-0.3,0.3-0.4c0.1-0.1,0.2-0.3,0.3-0.4c0-0.2,0.1-0.4,0.2-0.6c0.1-0.2,0.1-0.4,0.2-0.6
		c0.2-0.6,0.4-1,0.6-1.1c0-0.3,0-0.5,0-0.5c0,0,0.1-0.1,0.1-0.2c0.1-0.3,0.1-0.5,0.1-0.6c0-0.1,0-0.3,0-0.4c0-0.2,0-0.4,0-0.5
		c0-0.1,0-0.3-0.1-0.5c0.1-0.4,0.1-0.7,0.2-0.8c0-0.1,0-0.2-0.2-0.2c-0.1-0.7-0.1-1,0-1.1c-0.2-0.4-0.3-0.6-0.3-0.7
		c0,0-0.1-0.1-0.1-0.2c-0.1-0.3-0.2-0.5-0.2-0.5c0,0,0-0.1,0-0.2c-0.2-0.4-0.4-0.7-0.5-0.8c-0.2-0.4-0.4-0.7-0.6-0.9
		c0-0.3,0-0.5-0.1-0.7c-0.1-0.2-0.2-0.4-0.3-0.4c-0.4-0.4-0.6-0.7-0.7-0.8c-0.1-0.1-0.2-0.2-0.3-0.3s-0.2-0.2-0.3-0.3
		c-0.1-0.1-0.2-0.2-0.3-0.3c-0.4-0.2-0.7-0.3-0.8-0.5c-0.1-0.1-0.3-0.2-0.5-0.2c-0.4-0.3-0.7-0.5-0.9-0.6c-0.2,0-0.3-0.1-0.4-0.2
		c-0.5-0.1-0.8-0.2-0.9-0.2c-0.1,0-0.1,0-0.2-0.1c-0.5,0-0.7,0-0.7,0c0,0-0.1-0.1-0.2-0.1c-0.3,0-0.5,0-0.7-0.1s-0.4-0.1-0.7-0.1
		c-0.2-0.1-0.4-0.1-0.7-0.2c-0.3,0-0.5,0-0.6,0.1c-0.2-0.2-0.5-0.2-0.8-0.1c-0.3,0.1-0.7,0.2-1,0.3c-0.3,0.1-0.7,0.1-1,0.2
		c-0.4,0-0.6,0.2-0.8,0.4c-0.5,0-0.9,0.1-1.1,0.3c-0.2,0.1-0.4,0.3-0.7,0.4c-0.4,0.4-0.7,0.6-0.9,0.6c-0.2,0-0.3,0.1-0.4,0.3
		c-0.2,0-0.4,0.1-0.5,0.2s-0.3,0.2-0.5,0.2c-0.2,0.3-0.5,0.6-0.8,0.8c-0.3,0.2-0.6,0.5-0.8,0.8c-0.4,0.1-0.6,0.2-0.7,0.3
		c-0.1,0.1-0.1,0.2-0.2,0.3c-0.3,0.2-0.4,0.3-0.5,0.3s-0.2,0.1-0.3,0.2c-0.1,0.1-0.2,0.2-0.3,0.3c-0.1,0.1-0.2,0.2-0.3,0.2
		c-0.1,0.1-0.2,0.2-0.3,0.3c-0.1,0.1-0.3,0.2-0.3,0.4c-0.8,0.5-1.3,0.9-1.4,1.4c-0.3,0.3-0.4,0.5-0.4,0.6c0,0.1-0.1,0.2-0.2,0.3
		c-0.3,0.5-0.5,0.8-0.6,0.9c-0.1,0.2-0.2,0.4-0.2,0.6c-0.2,0.2-0.4,0.4-0.5,0.6c-0.1,0.2-0.2,0.4-0.4,0.6c-0.1,0.3-0.2,0.5-0.3,0.6
		c-0.1,0.1-0.2,0.1-0.3,0.2c0.1,0.4,0,0.8-0.1,1c-0.2,0.3-0.3,0.6-0.3,1c-0.3,0.5-0.5,0.8-0.5,0.9c0,0.1-0.1,0.2-0.2,0.3
		c0.1,0.2,0.1,0.4,0,0.5s-0.1,0.3,0,0.6c-0.2,0.1-0.3,0.2-0.3,0.4c0,0.2-0.1,0.4-0.3,0.4c0.1,0.4,0.1,0.6,0.1,0.6
		c0,0-0.1,0.1-0.1,0.1c0,0.4-0.1,0.7,0,0.8c0,0.1,0,0.2-0.1,0.3c0,0.4-0.1,0.7-0.1,0.7c0,0,0,0.1-0.1,0.1c0,0.2,0,0.4,0.1,0.5
		c0,0.1,0,0.2-0.1,0.3c0.2,0.3,0.2,0.5,0.1,0.8c-0.1,0.3-0.1,0.5,0,0.8l-0.2,0.8c0,0.2,0.1,0.4,0.2,0.6c0.1,0.2,0.1,0.4,0,0.6
		c0.1,0.5,0.1,0.7,0.1,0.8c-0.1,0-0.1,0.1-0.1,0.2c0.2,0.5,0.3,0.8,0.3,0.8c0,0,0.1,0.1,0.1,0.2c0.1,0.5,0.2,0.7,0.2,0.8
		c0,0.2,0.1,0.3,0,0.5c0,0.2,0,0.4,0,0.6c0,0.1,0.1,0.3,0.2,0.4c0.1,0.1,0.1,0.3,0.2,0.4c0.1,0.2,0.1,0.4,0.2,0.6
		c0,0.2,0.1,0.4,0.3,0.5c0,0.3,0.1,0.5,0.1,0.5c0,0.1,0.1,0.1,0.2,0.2c0.2,0.6,0.3,1,0.5,1.2c0.2,0.2,0.2,0.5,0.2,0.7
		c0.3,0.4,0.5,0.7,0.7,0.8c0.2,0.5,0.4,0.8,0.6,0.9c0.2,0.1,0.3,0.3,0.3,0.6c0.1,0.2,0.3,0.3,0.5,0.5c0.2,0.1,0.3,0.3,0.3,0.5
		c0.1,0.1,0.3,0.3,0.5,0.4s0.3,0.3,0.2,0.5c0.3,0.2,0.4,0.3,0.5,0.3c0.1,0,0.1,0.1,0.1,0.2c0.2,0.1,0.3,0.2,0.5,0.4
		c0.2,0.2,0.3,0.3,0.5,0.5c0.3,0.4,0.6,0.6,0.8,0.8c0.3,0.1,0.5,0.3,0.7,0.6c0.5,0.2,0.8,0.3,0.9,0.5c0.2,0,0.4,0.1,0.5,0.3
		c0.1,0.1,0.3,0.2,0.5,0.3c0.4,0.1,0.7,0.1,0.8,0.1c0.1,0,0.2,0,0.3,0c0.4,0.2,0.6,0.3,0.6,0.3c0,0,0.1,0,0.1,0.1
		c0.3,0,0.6,0.1,0.8,0.2s0.4,0.2,0.8,0.1c0.4,0,0.6,0.1,0.7,0.2c0.1,0.1,0.2,0.1,0.3,0.1c0.4,0.1,0.6,0.1,0.7,0.1
		c0.1,0,0.2,0,0.3,0.1c0.2-0.1,0.4-0.1,0.7-0.1c0.2,0,0.5,0.1,0.7,0.2c0.4,0,0.7-0.1,0.8-0.1c0.1,0,0.2,0,0.3,0c0.2,0,0.3,0,0.4-0.1
		c0.1,0,0.2,0,0.3,0.1c0.2-0.1,0.4-0.2,0.7-0.2s0.5,0,0.8-0.1c0.7-0.2,1.1-0.3,1.4-0.5c0.2-0.2,0.5-0.2,0.8-0.2
		c0.2-0.2,0.4-0.3,0.7-0.4c0.2-0.1,0.4-0.2,0.7-0.3c0.1-0.1,0.2-0.2,0.3-0.3c0.1-0.1,0.2-0.2,0.3-0.2c0.1-0.1,0.2-0.2,0.3-0.3
		c0.1,0,0.2-0.1,0.4-0.2c0.3-0.2,0.5-0.3,0.5-0.3c0,0,0-0.1,0.1-0.1c0.2-0.2,0.4-0.3,0.5-0.5c0.1-0.1,0.3-0.3,0.5-0.3l0.4-0.6
		c0.2-0.3,0.3-0.5,0.3-0.5s0.1,0,0.1-0.1c0.2-0.5,0.3-0.7,0.3-0.8c0-0.1,0.1-0.2,0.2-0.2c-0.1-0.2-0.1-0.3-0.1-0.4
		c0-0.1,0.1-0.2,0.1-0.4c0.7-0.3,1.2-0.3,1.4,0c0,0.5,0.1,1,0.2,1.6c-0.2,0.2-0.3,0.4-0.4,0.4c0,0.1-0.1,0.2-0.1,0.3
		c-0.1,0.2-0.2,0.3-0.2,0.3c-0.1,0.1-0.1,0.1-0.2,0.2c-0.2,0.4-0.3,0.6-0.3,0.6c-0.2,0.3-0.3,0.4-0.3,0.5c0,0.1-0.1,0.1-0.2,0.1
		c-0.3,0.3-0.4,0.5-0.4,0.6c0,0.1-0.1,0.1-0.3,0.2c-0.2,0.2-0.3,0.3-0.3,0.4c0,0.1-0.1,0.1-0.2,0.2c-0.5,0.3-0.7,0.4-0.7,0.4
		c0,0,0,0.1-0.1,0.1c-0.4,0.2-0.6,0.4-0.7,0.6c-0.2,0-0.3,0-0.3,0.1c-0.1,0-0.2,0.1-0.3,0.1c-0.1,0.1-0.2,0.2-0.3,0.3
		c-0.1,0.1-0.2,0.2-0.3,0.3c-0.1,0.1-0.2,0.2-0.3,0.2c-0.1,0.1-0.3,0.1-0.4,0.1c-0.2,0-0.3,0-0.3,0.1c-0.1,0-0.2,0.1-0.3,0.2
		c-0.4,0.1-0.7,0.2-0.8,0.3c-0.2,0-0.3,0.1-0.4,0.1c-0.1,0-0.3,0-0.4,0.1c-0.3,0.2-0.5,0.2-0.6,0.2c-0.1,0-0.2,0-0.3,0.1L149.8,91.2
		z"/>
	<path fill="#DA942F" d="M176.8,74.6c0.3,0.2,0.5,0.3,0.5,0.3c0,0,0,0.1,0,0.2c0.2,0.1,0.3,0.2,0.5,0.4c0.1,0.2,0.2,0.4,0.1,0.6
		c0.2,0.5,0.2,0.8,0.2,0.9c-0.1,0.2-0.1,0.3,0,0.4c0,0.5,0.1,1,0.1,1.2s0,0.5,0.1,0.8c0,0.7-0.1,1.1-0.2,1.3
		c-0.1,0.2-0.1,0.4-0.2,0.6c0,0.3-0.1,0.5-0.1,0.7c0,0.2-0.1,0.4-0.3,0.5c0,0.4-0.1,0.6-0.2,0.8c-0.1,0.1-0.3,0.3-0.3,0.5
		c-0.2,0.1-0.3,0.2-0.4,0.3c-0.1,0.1-0.2,0.2-0.3,0.3c-0.3,0-0.6,0.2-0.8,0.4c-0.2,0.2-0.5,0.3-0.8,0.4c-0.3,0.1-0.6,0.2-0.8,0.4
		c-0.3,0-0.5,0-0.5,0.1c0,0.1-0.1,0.1-0.2,0.2c-0.3,0-0.6,0.1-0.9,0.2c-0.3,0.1-0.7,0.1-1,0c-0.3,0.1-0.4,0.1-0.6,0.1
		c-0.1,0-0.3-0.1-0.4-0.1c-0.4-0.1-0.6-0.1-0.8-0.1c-0.1,0-0.2,0-0.3-0.2c-0.5,0-0.8-0.2-1-0.3c-0.2-0.2-0.5-0.3-0.9-0.3
		c-0.1-0.2-0.3-0.4-0.5-0.4s-0.3-0.2-0.4-0.4c-0.3-0.3-0.6-0.4-0.7-0.5c-0.1-0.1-0.2-0.2-0.2-0.4c-0.2,0-0.3-0.1-0.3-0.2
		c-0.1-0.1-0.2-0.2-0.3-0.3c-0.3-0.5-0.3-0.7-0.3-0.8c0.1,0,0.1-0.1,0-0.1c-0.2-0.4-0.3-0.6-0.3-0.7c0-0.1-0.1-0.2-0.2-0.4
		c-0.1-0.3-0.2-0.4-0.2-0.5c0-0.1,0-0.2-0.1-0.3c0-0.2,0-0.4-0.1-0.5c-0.1-0.1,0-0.3,0.1-0.4c-0.1-0.6-0.1-1-0.1-1.4
		c0.1-0.3,0.1-0.6,0-0.8c0.1-0.3,0.2-0.5,0.2-0.6c0-0.1,0-0.1-0.1-0.1c0.1-0.2,0.2-0.4,0.2-0.6c0-0.2,0-0.4,0.1-0.6
		c0.3-0.5,0.5-1,0.6-1.3c0.2,0,0.3-0.1,0.4-0.2c0-0.1,0.1-0.3,0.3-0.3c0.3-0.4,0.5-0.7,0.7-0.8c0.2-0.1,0.4-0.3,0.5-0.5
		c0.4-0.3,0.7-0.5,1.1-0.6c0.3-0.1,0.6-0.3,0.9-0.5l0.8-0.3c0.4,0,0.7,0,0.8,0s0.3-0.1,0.4-0.2c0.2,0.1,0.5,0.1,0.8,0.2
		c0.3,0,0.6,0,0.7-0.1c0.3,0.1,0.5,0.2,0.6,0.2c0.1,0,0.1,0,0.2,0c0.4,0.3,0.6,0.4,0.8,0.4c0.5,0.3,0.8,0.5,0.9,0.6
		c0.1,0.1,0.3,0.2,0.4,0.3c0.2,0.5,0.5,0.9,0.9,0.9c0.1,0.3,0.2,0.6,0.4,0.8C176.6,74,176.7,74.3,176.8,74.6z M169,84.3
		c0.2,0.1,0.4,0.2,0.6,0.3c0.2,0.1,0.4,0.1,0.6,0.1c0.5,0.1,0.8,0.1,0.8,0.1c0,0,0.1-0.1,0.1-0.1c0.3,0,0.5,0.1,0.6,0.1
		c0.1,0,0.1,0,0.2,0c0.5-0.1,0.7-0.2,0.8-0.2c0,0,0.1,0,0.2,0c0.4-0.2,0.7-0.3,0.8-0.3c0.1,0,0.2,0,0.3,0c0.6-0.5,1-0.8,1.3-1
		c0.3-0.2,0.5-0.3,0.5-0.4c0-0.1,0.1-0.1,0.3-0.2c0-0.3,0-0.5,0.1-0.6c0.1-0.2,0.1-0.4,0.1-0.7c0.2-0.3,0.2-0.6,0.2-0.9l0.1-0.8
		c0-0.7,0-1.2,0.1-1.5s0-0.7,0-1c0-0.2-0.1-0.3-0.2-0.4c-0.1-0.1-0.1-0.2,0-0.4c-0.3-0.4-0.6-0.6-0.8-0.7l-0.3-0.7
		c-0.3-0.4-0.5-0.6-0.6-0.6c0,0-0.1,0-0.2-0.1c-0.3-0.3-0.4-0.4-0.5-0.4s-0.2,0-0.3-0.1c0-0.2-0.1-0.3-0.2-0.4
		c-0.1-0.1-0.2-0.2-0.2-0.4c-0.2-0.1-0.3-0.2-0.5-0.3c-0.1-0.1-0.3-0.2-0.5-0.3c-0.3,0-0.6,0.1-0.7,0c-0.1,0-0.2,0-0.3,0
		c-0.1,0-0.2,0-0.3,0c-0.1,0-0.3,0-0.4,0c-0.2,0-0.4,0-0.5,0c-0.1,0-0.2,0.1-0.3,0.1c-0.5,0.2-0.8,0.3-0.9,0.3
		c-0.1,0-0.2,0.1-0.3,0.1c-0.5,0.4-0.8,0.7-0.8,0.9c-0.3,0-0.6,0-0.7,0.2s-0.3,0.3-0.5,0.4c0,0.2-0.1,0.3-0.2,0.4
		c-0.1,0.1-0.2,0.2-0.2,0.4c-0.3,0.3-0.4,0.4-0.4,0.5c0,0.1-0.1,0.2-0.2,0.2c0.1,0.2,0.1,0.4-0.1,0.6s-0.2,0.4-0.1,0.7
		c-0.2,0.4-0.3,0.6-0.3,0.7c0,0,0.1,0.1,0.1,0.3c0,0.5,0,0.8-0.1,1c0,0.2,0,0.3,0,0.4c0.1,0.5,0.2,0.8,0.3,0.8
		c0.2,0.5,0.3,0.8,0.3,0.9c0,0.1,0,0.2,0.1,0.3c0.4,0.4,0.6,0.7,0.7,0.8c0.1,0.1,0.2,0.3,0.3,0.3c0.4,0.3,0.6,0.4,0.7,0.4
		c0,0,0.1,0,0.1,0c0.5,0.4,0.7,0.7,0.8,1.1H169z"/>
	<path fill="#DA942F" d="M202.8,86.3c0.4,0,0.6,0,0.7-0.1c0-0.1,0.1-0.1,0.2-0.1c0.2,0,0.4,0.1,0.5,0.2c0.1,0.1,0.3,0.1,0.5,0.1
		c0.3,0.4,0.5,0.6,0.5,0.7c0,0,0,0.1,0,0.2c0.2,0.1,0.3,0.3,0.4,0.5c0.1,0.2,0.3,0.3,0.5,0.5c-0.2,0.5-0.3,0.8-0.3,0.9
		c0,0.1-0.1,0.2-0.1,0.3c-0.1,0.1-0.2,0.2-0.3,0.3c-0.1,0.1-0.2,0.3-0.3,0.4c-0.2,0.2-0.3,0.4-0.5,0.5c-0.2,0.1-0.4,0.3-0.6,0.5
		c-0.5,0-0.8,0.1-1.1,0.3c-0.3,0.1-0.6,0-0.9-0.3c-0.4,0-0.6,0-0.7,0c0,0-0.1-0.1-0.2-0.1c-0.6-0.2-1-0.3-1.1-0.4
		c-0.1-0.3-0.2-0.4-0.3-0.4c-0.1,0-0.2,0-0.3-0.1c-0.2-0.3-0.3-0.5-0.3-0.7c0-0.1,0-0.3-0.1-0.4c-0.2-0.5-0.3-0.8-0.4-0.9
		c0.1-0.5,0-0.8-0.1-1.1c0-0.1,0.1-0.3,0-0.4c0-0.1,0-0.2,0.1-0.3c0-0.5,0-0.9,0-0.9s-0.1-0.2-0.1-0.3c0.1-0.4,0.2-0.7,0.2-0.8
		c0-0.1,0-0.2,0-0.3c0.1-0.8,0.2-1.4,0.2-1.7c0-0.3,0-0.6,0.1-0.7c0.1-0.1,0.1-0.3,0.1-0.4c0-0.3,0-0.5,0-0.7c0.1-0.1,0.1-0.3,0-0.5
		c0.1-0.5,0.2-0.8,0.3-0.9c0-0.2,0.1-0.3,0.1-0.4c0.1-0.3,0.1-0.5,0.1-0.8s0.1-0.5,0.2-0.8c-0.1-0.1-0.1-0.3-0.1-0.5
		c0-0.3,0-0.4-0.2-0.4c0.1-0.1,0.1-0.2,0.1-0.4s0-0.3-0.1-0.4c0-0.6,0-1.1,0-1.4c0-0.4,0-0.7-0.2-1c0-0.5-0.1-0.8-0.1-0.9
		s-0.1-0.1-0.3-0.1c0.1-0.3,0.1-0.4,0-0.5c-0.1-0.1-0.1-0.1-0.2-0.2c-0.1-0.4-0.2-0.6-0.3-0.6c-0.1,0-0.2,0-0.3-0.1
		c-0.1-0.1-0.2-0.2-0.2-0.3c-0.1-0.1-0.1-0.2-0.2-0.4c-0.2-0.1-0.4-0.2-0.5-0.3c-0.1-0.1-0.3-0.2-0.5-0.2c-0.2-0.1-0.3-0.2-0.4-0.3
		c-0.1-0.1-0.3-0.1-0.4-0.2c-0.2,0-0.3-0.1-0.5,0c-0.2,0-0.3,0-0.4-0.1c-0.2,0.1-0.3,0.1-0.4,0.1c-0.1,0-0.2,0-0.3,0
		c-0.4,0.1-0.7,0.1-0.8,0.1c-0.2,0-0.4,0.1-0.6,0.1c-0.2,0-0.4,0.2-0.4,0.4c-0.5-0.1-0.9,0.1-1.1,0.5c-0.4,0.2-0.6,0.3-0.7,0.4
		c-0.1,0.1-0.1,0.2-0.2,0.3c-0.3,0.1-0.5,0.2-0.5,0.3c0,0.1,0,0.1-0.1,0.2l-0.4,0.6c-0.3,0.2-0.6,0.3-0.7,0.4
		c-0.1,0.1-0.2,0.2-0.2,0.3c-0.1,0.2-0.1,0.4-0.2,0.4c0,0.1-0.1,0.2-0.2,0.3l-0.3,0.6c-0.1,0.3-0.2,0.4-0.3,0.5
		c-0.1,0.1-0.1,0.2-0.1,0.3c0.2,0.6,0.3,1,0.3,1.2c0,0.2,0.1,0.4,0.2,0.6c0.1,0.3,0.1,0.5,0.2,0.6c0,0.1,0.1,0.2,0.2,0.3
		c-0.1,0.1-0.1,0.2-0.1,0.4c0,0.2,0,0.3-0.1,0.3c0.1,0.3,0.2,0.7,0.3,1.1c0.1,0.3,0.1,0.5,0.1,0.6c0,0,0,0.1,0,0.2
		c0.1,0.3,0.1,0.5,0.2,0.7c0,0.2,0.1,0.4,0.2,0.5c0.1,0.3,0.1,0.6,0.1,0.9c0.1,0.3,0.1,0.6,0.1,0.7c0.1,0.2,0.1,0.4,0.1,0.7
		c0,0.2,0,0.4,0.1,0.5c-0.2,0.4-0.2,0.6-0.2,0.6c0,0,0.1,0.1,0.1,0.1c0,0.2-0.1,0.4,0,0.5c0,0.1,0,0.3,0,0.5c0,0.4,0,0.7,0.1,0.7
		c0,0.1,0,0.3,0,0.4c-0.1,0.1-0.1,0.3-0.1,0.5c0,0.2,0,0.4,0,0.6c0,0.2,0,0.4-0.1,0.6c-0.2,0.4-0.3,0.7-0.4,0.8
		c0,0.3-0.1,0.5-0.2,0.6c-0.1,0.1-0.1,0.2-0.2,0.3c-0.2,0.1-0.3,0.2-0.5,0.2c-0.1,0.1-0.3,0.2-0.3,0.3c-0.1,0-0.3,0-0.4,0.1
		c-0.1,0.1-0.3,0.1-0.4,0.2c-0.3,0.1-0.4,0.3-0.6,0.5c-0.2,0-0.4,0-0.5,0.1s-0.3,0.1-0.4,0c-0.3-0.3-0.5-0.5-0.5-0.6
		c0,0,0-0.1,0-0.1l-0.7-0.8c-0.3-0.5-0.4-0.8-0.4-1c0-0.2,0-0.3-0.2-0.4c0.1-0.3,0.1-0.5,0-0.7c-0.1-0.2-0.1-0.4-0.1-0.6
		c0-0.3,0-0.5,0-0.6c0,0-0.1-0.1-0.1-0.2c0-0.1,0-0.2,0.1-0.4c0-0.2,0.1-0.4,0.1-0.7c0-0.2,0-0.4,0-0.5c0-0.1,0-0.3,0-0.5v-0.8
		c0-0.3,0.1-0.5,0.1-0.7c0-0.2,0.1-0.4,0.1-0.7c0-0.4,0-0.6,0-0.7c0.2-0.3,0.2-0.4,0.2-0.6c0-0.1,0-0.3,0-0.4
		c0.1-0.2,0.2-0.4,0.3-0.5c0.1-0.1,0.1-0.2,0.1-0.3c0-0.2,0.1-0.3,0.1-0.5c0-0.1,0-0.3,0.1-0.4c0-0.5,0.2-0.9,0.5-1.3
		c0-0.4,0-0.6,0.1-0.6c0,0,0.1,0,0.1-0.1c0.3-0.5,0.4-0.9,0.4-1s0-0.3,0.1-0.5c0.1-0.4,0.1-0.6,0.1-0.8c0-0.1,0-0.2,0-0.3
		c-0.1-0.3-0.2-0.6-0.3-0.7c-0.1-0.1-0.2-0.3-0.1-0.4c-0.2-0.5-0.3-0.7-0.4-0.8c-0.1-0.1-0.2-0.2-0.2-0.4c-0.3-0.3-0.4-0.5-0.4-0.8
		c0-0.2-0.1-0.4-0.2-0.5c-0.3-0.3-0.4-0.4-0.6-0.5c-0.3-0.2-0.4-0.2-0.5-0.2c-0.1,0-0.2,0-0.3,0c-0.5,0.3-1,0.4-1.3,0.3
		c-0.3-0.1-0.5-0.3-0.6-0.5c0.1-0.5,0.2-0.8,0.3-0.9c0.1-0.1,0.2-0.2,0.3-0.4c0.3,0,0.5,0,0.6-0.1c0.1-0.1,0.3-0.1,0.5-0.1
		c0.5-0.2,0.9-0.2,1.1-0.1c0.3,0.1,0.6,0.1,0.9,0.2c0.3,0.3,0.5,0.4,0.6,0.5c0.1,0.1,0.2,0.1,0.4,0.1c0,0.4,0.1,0.7,0.2,0.8
		c0.1,0.1,0.1,0.2,0.2,0.3c0.1,0.6,0.2,1,0.4,1.3c0.2,0.5,0.3,0.7,0.3,0.6c0,0,0.1,0,0.1,0.1c0.3-0.3,0.5-0.4,0.5-0.4
		c0.1,0,0.1-0.1,0-0.2c0.4-0.3,0.6-0.4,0.6-0.4c0,0,0-0.1-0.1-0.1c0.2-0.1,0.3-0.3,0.4-0.4c0.1-0.1,0.3-0.3,0.4-0.4
		c0.4-0.6,0.8-1,1.1-1.3c0.4-0.3,0.8-0.6,1.1-0.8c0.3-0.2,0.4-0.3,0.6-0.4c0.1-0.1,0.3-0.2,0.3-0.3c0.4,0.1,0.8,0.1,1.1-0.1
		c0.3-0.1,0.6-0.2,1-0.3c0.4-0.1,0.9-0.1,1.4-0.1c0.5,0.1,0.8,0.2,0.9,0.2s0.3,0,0.5,0c0.2,0,0.3,0.1,0.5,0.2
		c0.1,0.1,0.3,0.1,0.5,0.1c0.3,0.2,0.6,0.3,0.7,0.4s0.2,0.2,0.3,0.3c0.5,0.4,0.9,0.7,1,0.9c0.1,0.2,0.2,0.4,0.4,0.6
		c0.1,0.1,0.2,0.2,0.2,0.3c0,0.1,0.1,0.2,0.3,0.3c0.1,0.5,0.2,0.8,0.3,0.9c0.1,0.5,0.2,0.9,0.3,1.2c0.1,0.5,0.2,0.7,0.1,0.8
		c0,0-0.1,0.1-0.1,0.2c0.2,0.6,0.3,0.9,0.3,0.9c0,0.4,0,0.6,0.1,0.6c0,0,0.1,0.1,0.1,0.1c0,0.3,0,0.6,0,0.9c0,0.3,0,0.5-0.1,0.7
		c0,0.4,0.1,0.6,0.1,0.7c0,0.1,0,0.2,0,0.3c-0.2,0.6-0.2,0.9-0.2,1c-0.2,0.2-0.2,0.5-0.2,0.8c0,0.3,0,0.6-0.3,0.8
		c0,0.1,0.1,0.2,0,0.3c0,0.1,0,0.3,0,0.5c0,0.3,0,0.5,0,0.6c0,0-0.1,0.1-0.1,0.1c0,0.3-0.1,0.6-0.1,0.7c0,0.1,0,0.3,0,0.5
		c0,0.5,0,0.9-0.1,1.1c0,0.4,0,0.7-0.1,0.9c0,0.3,0,0.5,0,0.7s0,0.3,0.1,0.3c0,0.2-0.1,0.5-0.1,0.8c0,0.3,0,0.5,0,0.6
		c0.1,0.1,0.1,0.2,0.2,0.3c0,0.5,0,0.8,0.1,0.9c0,0.1,0.1,0.3,0.1,0.4c0.2,0.1,0.3,0.2,0.4,0.4c0.1,0.2,0.2,0.3,0.4,0.4
		c0.2,0,0.4,0,0.6,0c0.2,0,0.4,0.1,0.6,0.1c0.5-0.2,0.7-0.3,0.7-0.3c0,0,0,0,0-0.1c0.2-0.3,0.3-0.4,0.3-0.6c0-0.1,0-0.2-0.1-0.3
		c-0.3-0.3-0.6-0.5-0.8-0.6s-0.3-0.2-0.3-0.5c0.1-0.4,0.2-0.6,0.1-0.7C202.7,86.6,202.8,86.5,202.8,86.3z M186.3,79.2
		c0,0.3,0,0.5,0,0.8c0,0.3-0.1,0.5-0.2,0.8c-0.1,0.1-0.1,0.2-0.2,0.3c0,0.1-0.1,0.3-0.1,0.5c0,0.1,0,0.2,0,0.3c0,0.1,0,0.3,0,0.3
		c0,0.3,0,0.5,0,0.5c0,0.1-0.1,0.1-0.1,0.2c-0.1,0.4-0.1,0.6-0.1,0.6c0,0,0,0.1,0,0.2c-0.1,0.5-0.2,0.9-0.1,1c0,0.1,0,0.3,0,0.5
		c-0.1,0.4-0.1,0.7-0.1,0.8c0,0.1,0.1,0.2,0.1,0.3c0,0.3,0,0.5-0.1,0.8c0,0.3,0,0.6,0,0.9c0.2,0.5,0.3,0.8,0.3,0.8
		c0,0.1,0.1,0.1,0.2,0.2c0.1,0.2,0.1,0.4,0.2,0.4c0,0.1,0.1,0.1,0.2,0.2c0.2,0,0.3,0,0.4-0.1c0.1-0.1,0.2-0.1,0.3-0.2
		c0-0.2,0.1-0.3,0.2-0.4c0.1-0.1,0.2-0.2,0.3-0.3c0.1-0.5,0.1-0.9,0.2-1.1c0-0.2,0-0.4,0-0.6c0-0.5-0.1-0.7-0.2-0.7
		c-0.1,0-0.1,0-0.1-0.1c0.1-0.4,0.2-0.7,0.3-0.9c0-0.2,0.1-0.3,0.1-0.5c0-0.6-0.1-1.1-0.1-1.4s0-0.6,0.1-0.8
		c-0.2-0.3-0.2-0.5-0.2-0.6c0-0.1,0-0.2,0-0.3c-0.1-0.3-0.2-0.5-0.1-0.5c0.1,0,0.1-0.1,0-0.2c-0.2-0.4-0.3-0.7-0.3-0.8
		c0-0.1,0-0.2,0.1-0.3c-0.2-0.1-0.2-0.2-0.2-0.4c0.1-0.2,0.1-0.3,0-0.4c-0.2-0.4-0.4-0.6-0.4-0.6c-0.1,0.1-0.1,0.3-0.2,0.4
		C186.4,79,186.3,79.1,186.3,79.2z"/>
	<path fill="#DA942F" d="M215.8,61.4c-0.1,0.5-0.2,0.8-0.3,0.9c-0.1,0.1-0.2,0.4-0.1,0.7c-0.3,0.4-0.5,0.7-0.5,0.8
		c0,0.1,0,0.2,0,0.3c-0.2,0.4-0.3,0.6-0.4,0.8c0,0.3,0,0.5-0.1,0.5c-0.1,0-0.1,0.1-0.2,0.2c-0.1,0.3-0.2,0.7-0.2,1.2s-0.1,0.9,0,1.2
		c0.3,0.1,0.6,0.1,0.8,0.1c0.2,0,0.4-0.1,0.6-0.1c0.7,0,1.2,0,1.3,0c0.4,0,0.6,0.1,0.8,0c0.1,0,0.2-0.1,0.3-0.2
		c0,0.1,0.2,0.1,0.4,0.2c0.2,0,0.4,0,0.4-0.1c0.2,0.2,0.4,0.4,0.6,0.4c0.2,0.6,0.2,0.9,0,1s-0.3,0.2-0.5,0.3c-0.8,0.3-1.2,0.3-1.3,0
		c-0.5-0.1-0.9-0.1-1.2-0.2c-0.3,0-0.7,0-1.2,0.1c-0.4,0-0.7,0.1-0.9,0.1c-0.3,0-0.4,0.1-0.6,0.2c0,0.3,0,0.5-0.1,0.7
		s-0.1,0.4,0,0.6c-0.2,0.4-0.3,0.6-0.3,0.7c0,0.1,0,0.2,0,0.4c0,0.1-0.1,0.2-0.1,0.3c0,0.1-0.1,0.3-0.2,0.3c0.1,0.3,0.1,0.7,0,0.9
		c0.2,0.4,0.2,0.6,0.1,0.5c-0.1,0-0.2,0-0.2,0.2c0,0.2,0.1,0.3,0.1,0.4s0,0.2,0.1,0.4c0,0.5,0,0.8-0.1,1c0,0.2-0.1,0.4-0.1,0.6
		c0,0.4,0.1,0.7,0,0.8c0,0.1,0,0.2,0,0.3c0,0.2,0,0.5,0,0.8c0,0.3,0.1,0.5,0.1,0.7c0,0.1,0.1,0.3,0.1,0.4c0,0.1,0.1,0.2,0,0.3
		c0,0.1,0,0.2,0,0.4c0,0.2,0.1,0.3,0.2,0.5c0.1,0.1,0.1,0.3,0.2,0.5c0,0.1,0,0.2-0.1,0.3c0,0.1,0,0.3,0.1,0.4c0.2,0.6,0.3,1,0.3,1.1
		c0,0.1,0,0.3,0.1,0.5c0.2,0.3,0.3,0.6,0.3,0.7c0,0.1,0,0.3,0.1,0.4c0.1,0.2,0.2,0.4,0.3,0.6c0.1,0.2,0.2,0.4,0.3,0.5
		c0,0.3,0,0.5,0.1,0.6s0.2,0.3,0.3,0.5c0.4,0.4,0.5,0.6,0.5,0.6c0.3,0.3,0.4,0.4,0.6,0.4c0.1,0,0.2,0.2,0.2,0.4
		c0.4,0.1,0.8,0.3,1.1,0.6c0.2-0.2,0.4-0.2,0.5-0.2c0.1,0,0.2,0.1,0.3,0.2c0.1,0.1,0.2,0.2,0.3,0.2c0.1,0.1,0.2,0.1,0.4,0.2
		c0,0.2,0,0.3,0,0.5c0,0.1,0.1,0.2,0.2,0.2c-0.4,0.3-0.7,0.4-0.8,0.4c-0.1,0-0.2,0-0.2,0c-0.4,0.5-0.6,0.6-0.8,0.6
		c-0.2-0.1-0.4-0.1-0.6-0.1c-0.3-0.3-0.4-0.5-0.5-0.5c-0.1,0-0.2-0.1-0.2-0.3c-0.6-0.4-1-0.6-1.4-0.6c-0.4-0.4-0.7-0.7-0.9-0.8
		s-0.3-0.3-0.5-0.4c0-0.4,0-0.6-0.1-0.7c-0.1,0-0.2-0.1-0.3-0.2c-0.2-0.4-0.3-0.8-0.3-1c0-0.3-0.1-0.5-0.3-0.7c0-0.3,0-0.5-0.1-0.6
		c-0.1-0.1-0.2-0.3-0.3-0.5c0-0.2,0-0.4,0-0.6c0-0.2,0-0.4-0.1-0.6c-0.2-0.5-0.3-0.8-0.3-0.8c0,0-0.1-0.1-0.1-0.1
		c0-0.3,0-0.5-0.1-0.7c-0.1-0.2-0.1-0.5,0-0.7c-0.1-0.4-0.2-0.8-0.3-1c0-0.3-0.1-0.5-0.1-0.7c0-0.1,0-0.2,0-0.3s0-0.2,0-0.3
		c0-0.2-0.1-0.5-0.1-0.8c0-0.3,0-0.6,0-0.9c0-0.1,0-0.3,0-0.4c0-0.1,0.1-0.3,0.1-0.4c0-0.5,0.1-0.7,0-0.8c0,0,0-0.1,0-0.1
		c0-0.1,0-0.3,0-0.4c0-0.2,0.1-0.3,0.1-0.4c-0.1-0.2-0.2-0.4-0.1-0.7c0.1-0.3,0.1-0.5,0.1-0.8c0-0.1,0-0.3,0-0.4
		c0-0.2,0-0.3-0.1-0.4c0-0.3,0-0.5,0-0.6c0-0.1,0-0.2,0.1-0.3c0.1-0.5,0.2-0.8,0.2-0.8c0,0,0,0,0-0.1c0-0.1,0-0.3,0.1-0.5
		c0.1-0.2,0.1-0.4,0-0.6c-0.2,0-0.4,0.1-0.7,0.2c-0.3,0.1-0.5,0.1-0.6-0.1c-0.1,0.1-0.2,0.1-0.3,0.2c-0.1,0-0.3,0.1-0.4,0.1
		c-0.4,0.1-0.7,0.2-1,0.3c-0.2,0.1-0.5,0.1-0.8,0c-0.3-0.4-0.4-0.6-0.5-0.8c-0.1-0.1-0.1-0.3,0-0.6c0.2-0.1,0.4-0.1,0.7-0.2
		c0.3,0,0.5-0.1,0.6-0.3c0.2,0,0.4,0.1,0.6,0c0.2,0,0.5-0.1,0.8-0.1c0.1-0.2,0.3-0.2,0.6-0.2c0.3,0,0.6,0,0.8-0.1
		c0.5-0.3,0.8-0.4,0.9-0.6c0-0.1,0.1-0.3,0.2-0.6c0.1-0.3,0.2-0.5,0.1-0.6c0-0.1,0-0.2,0-0.3c0.1-0.3,0.1-0.5,0.2-0.6
		c0-0.1,0-0.2-0.1-0.2c0.3-0.3,0.4-0.5,0.3-0.6c0,0,0-0.1,0-0.2c0.2-0.3,0.3-0.5,0.3-0.6c0-0.1,0.1-0.2,0.2-0.2c0-0.3,0-0.5,0.2-0.7
		c0.1-0.1,0.3-0.3,0.4-0.5c0-0.4,0.1-0.8,0.2-1.2c0.3-0.5,0.5-0.7,0.6-0.7s0.1,0,0.2-0.1c0.3-0.1,0.5-0.1,0.6-0.2
		c0.1,0,0.1-0.1,0.2-0.1c0.2,0.3,0.3,0.4,0.3,0.5C215.5,61.2,215.6,61.3,215.8,61.4z"/>
	<path fill="#DA942F" d="M234.1,74.6c0.3,0.2,0.5,0.3,0.5,0.3c0,0,0,0.1,0,0.2c0.2,0.1,0.3,0.2,0.5,0.4c0.1,0.2,0.2,0.4,0.1,0.6
		c0.2,0.5,0.2,0.8,0.2,0.9c-0.1,0.2-0.1,0.3,0,0.4c0,0.5,0.1,1,0.1,1.2s0,0.5,0.1,0.8c0,0.7-0.1,1.1-0.2,1.3
		c-0.1,0.2-0.1,0.4-0.2,0.6c0,0.3-0.1,0.5-0.1,0.7s-0.1,0.4-0.3,0.5c0,0.4-0.1,0.6-0.2,0.8c-0.1,0.1-0.3,0.3-0.3,0.5
		c-0.2,0.1-0.3,0.2-0.4,0.3c-0.1,0.1-0.2,0.2-0.3,0.3c-0.3,0-0.6,0.2-0.8,0.4c-0.2,0.2-0.5,0.3-0.8,0.4c-0.3,0.1-0.6,0.2-0.8,0.4
		c-0.3,0-0.5,0-0.5,0.1c0,0.1-0.1,0.1-0.2,0.2c-0.3,0-0.6,0.1-0.9,0.2c-0.3,0.1-0.7,0.1-1,0c-0.3,0.1-0.4,0.1-0.6,0.1
		c-0.1,0-0.3-0.1-0.4-0.1c-0.4-0.1-0.6-0.1-0.8-0.1c-0.1,0-0.2,0-0.3-0.2c-0.5,0-0.8-0.2-1-0.3c-0.2-0.2-0.5-0.3-0.9-0.3
		c-0.1-0.2-0.3-0.4-0.5-0.4s-0.3-0.2-0.4-0.4c-0.3-0.3-0.6-0.4-0.7-0.5c-0.1-0.1-0.2-0.2-0.2-0.4c-0.2,0-0.3-0.1-0.3-0.2
		c-0.1-0.1-0.2-0.2-0.3-0.3c-0.3-0.5-0.3-0.7-0.3-0.8c0.1,0,0.1-0.1,0-0.1c-0.2-0.4-0.3-0.6-0.3-0.7c0-0.1-0.1-0.2-0.2-0.4
		c-0.1-0.3-0.2-0.4-0.2-0.5c0-0.1,0-0.2-0.1-0.3c0-0.2,0-0.4-0.1-0.5c-0.1-0.1,0-0.3,0.1-0.4c-0.1-0.6-0.1-1-0.1-1.4
		c0.1-0.3,0.1-0.6,0-0.8c0.1-0.3,0.2-0.5,0.2-0.6c0-0.1,0-0.1-0.1-0.1c0.1-0.2,0.2-0.4,0.2-0.6c0-0.2,0-0.4,0.1-0.6
		c0.3-0.5,0.5-1,0.6-1.3c0.2,0,0.3-0.1,0.4-0.2c0-0.1,0.1-0.3,0.3-0.3c0.3-0.4,0.5-0.7,0.7-0.8c0.2-0.1,0.4-0.3,0.5-0.5
		c0.4-0.3,0.7-0.5,1.1-0.6c0.3-0.1,0.6-0.3,0.9-0.5l0.8-0.3c0.4,0,0.7,0,0.8,0s0.3-0.1,0.4-0.2c0.2,0.1,0.5,0.1,0.8,0.2
		c0.3,0,0.6,0,0.7-0.1c0.3,0.1,0.5,0.2,0.6,0.2c0.1,0,0.1,0,0.2,0c0.4,0.3,0.6,0.4,0.8,0.4c0.5,0.3,0.8,0.5,0.9,0.6
		c0.1,0.1,0.3,0.2,0.4,0.3c0.2,0.5,0.5,0.9,0.9,0.9c0.1,0.3,0.2,0.6,0.4,0.8C233.9,74,234,74.3,234.1,74.6z M226.3,84.3
		c0.2,0.1,0.4,0.2,0.6,0.3c0.2,0.1,0.4,0.1,0.6,0.1c0.5,0.1,0.8,0.1,0.8,0.1c0,0,0.1-0.1,0.1-0.1c0.3,0,0.5,0.1,0.6,0.1
		c0.1,0,0.1,0,0.2,0c0.5-0.1,0.7-0.2,0.8-0.2c0,0,0.1,0,0.2,0c0.4-0.2,0.7-0.3,0.8-0.3c0.1,0,0.2,0,0.3,0c0.6-0.5,1-0.8,1.3-1
		c0.3-0.2,0.5-0.3,0.5-0.4c0-0.1,0.1-0.1,0.3-0.2c0-0.3,0-0.5,0.1-0.6c0.1-0.2,0.1-0.4,0.1-0.7c0.2-0.3,0.2-0.6,0.2-0.9l0.1-0.8
		c0-0.7,0-1.2,0.1-1.5c0-0.4,0-0.7,0-1c0-0.2-0.1-0.3-0.2-0.4c-0.1-0.1-0.1-0.2,0-0.4c-0.3-0.4-0.6-0.6-0.8-0.7l-0.3-0.7
		c-0.3-0.4-0.5-0.6-0.6-0.6c0,0-0.1,0-0.2-0.1c-0.3-0.3-0.4-0.4-0.5-0.4c-0.1,0-0.2,0-0.3-0.1c0-0.2-0.1-0.3-0.2-0.4
		c-0.1-0.1-0.2-0.2-0.2-0.4c-0.2-0.1-0.3-0.2-0.5-0.3c-0.1-0.1-0.3-0.2-0.5-0.3c-0.3,0-0.6,0.1-0.7,0c-0.1,0-0.2,0-0.3,0
		s-0.2,0-0.3,0c-0.1,0-0.3,0-0.4,0c-0.2,0-0.4,0-0.5,0c-0.1,0-0.2,0.1-0.3,0.1c-0.5,0.2-0.8,0.3-0.9,0.3s-0.2,0.1-0.3,0.1
		c-0.5,0.4-0.8,0.7-0.8,0.9c-0.3,0-0.6,0-0.7,0.2c-0.1,0.2-0.3,0.3-0.5,0.4c0,0.2-0.1,0.3-0.2,0.4c-0.1,0.1-0.2,0.2-0.2,0.4
		c-0.3,0.3-0.4,0.4-0.4,0.5c0,0.1-0.1,0.2-0.2,0.2c0.1,0.2,0.1,0.4-0.1,0.6c-0.1,0.2-0.2,0.4-0.1,0.7c-0.2,0.4-0.3,0.6-0.3,0.7
		c0,0,0.1,0.1,0.1,0.3c0,0.5,0,0.8-0.1,1c0,0.2,0,0.3,0,0.4c0.1,0.5,0.2,0.8,0.3,0.8c0.2,0.5,0.3,0.8,0.3,0.9c0,0.1,0,0.2,0.1,0.3
		c0.4,0.4,0.6,0.7,0.7,0.8c0.1,0.1,0.2,0.3,0.3,0.3c0.4,0.3,0.6,0.4,0.7,0.4c0,0,0.1,0,0.1,0c0.5,0.4,0.7,0.7,0.8,1.1H226.3z"/>
</g>
</svg>
